<svg width="267" height="250" viewBox="0 0 267 250" fill="none" xmlns="http://www.w3.org/2000/svg">
<circle cx="2.2682" cy="2.2682" r="2.2682" fill="#D9D9D9"/>
<circle cx="142.249" cy="2.2682" r="2.2682" fill="#D9D9D9"/>
<circle cx="72.2584" cy="2.2682" r="2.2682" fill="#D9D9D9"/>
<circle cx="212.239" cy="2.2682" r="2.2682" fill="#D9D9D9"/>
<circle cx="37.2633" cy="2.2682" r="2.2682" fill="#D9D9D9"/>
<circle cx="177.243" cy="2.2682" r="2.2682" fill="#D9D9D9"/>
<circle cx="107.255" cy="2.2682" r="2.2682" fill="#D9D9D9"/>
<circle cx="247.234" cy="2.2682" r="2.2682" fill="#D9D9D9"/>
<circle cx="19.7663" cy="2.2682" r="2.2682" fill="#D9D9D9"/>
<circle cx="159.746" cy="2.2682" r="2.2682" fill="#D9D9D9"/>
<circle cx="89.7565" cy="2.2682" r="2.2682" fill="#D9D9D9"/>
<circle cx="229.736" cy="2.2682" r="2.2682" fill="#D9D9D9"/>
<circle cx="54.7614" cy="2.2682" r="2.2682" fill="#D9D9D9"/>
<circle cx="194.741" cy="2.2682" r="2.2682" fill="#D9D9D9"/>
<circle cx="124.752" cy="2.2682" r="2.2682" fill="#D9D9D9"/>
<circle cx="264.732" cy="2.2682" r="2.2682" fill="#D9D9D9"/>
<circle cx="2.2682" cy="72.2595" r="2.2682" fill="#D9D9D9"/>
<circle cx="142.249" cy="72.2585" r="2.2682" fill="#D9D9D9"/>
<circle cx="72.2584" cy="72.2585" r="2.2682" fill="#D9D9D9"/>
<circle cx="212.239" cy="72.2585" r="2.2682" fill="#D9D9D9"/>
<circle cx="37.2633" cy="72.2585" r="2.2682" fill="#D9D9D9"/>
<circle cx="177.243" cy="72.2585" r="2.2682" fill="#D9D9D9"/>
<circle cx="107.255" cy="72.2585" r="2.2682" fill="#D9D9D9"/>
<circle cx="247.234" cy="72.2585" r="2.2682" fill="#D9D9D9"/>
<circle cx="19.7663" cy="72.2585" r="2.2682" fill="#D9D9D9"/>
<circle cx="159.746" cy="72.2585" r="2.2682" fill="#D9D9D9"/>
<circle cx="89.7565" cy="72.2585" r="2.2682" fill="#D9D9D9"/>
<circle cx="229.736" cy="72.2585" r="2.2682" fill="#D9D9D9"/>
<circle cx="54.7614" cy="72.2585" r="2.2682" fill="#D9D9D9"/>
<circle cx="194.741" cy="72.2585" r="2.2682" fill="#D9D9D9"/>
<circle cx="124.752" cy="72.2585" r="2.2682" fill="#D9D9D9"/>
<circle cx="264.732" cy="72.2585" r="2.2682" fill="#D9D9D9"/>
<circle cx="2.2682" cy="142.249" r="2.2682" fill="#D9D9D9"/>
<circle cx="142.249" cy="142.249" r="2.2682" fill="#D9D9D9"/>
<circle cx="72.2584" cy="142.249" r="2.2682" fill="#D9D9D9"/>
<circle cx="212.239" cy="142.249" r="2.2682" fill="#D9D9D9"/>
<circle cx="37.2633" cy="142.249" r="2.2682" fill="#D9D9D9"/>
<circle cx="177.243" cy="142.249" r="2.2682" fill="#D9D9D9"/>
<circle cx="107.255" cy="142.249" r="2.2682" fill="#D9D9D9"/>
<circle cx="247.234" cy="142.249" r="2.2682" fill="#D9D9D9"/>
<circle cx="19.7663" cy="142.249" r="2.2682" fill="#D9D9D9"/>
<circle cx="159.746" cy="142.249" r="2.2682" fill="#D9D9D9"/>
<circle cx="89.7565" cy="142.249" r="2.2682" fill="#D9D9D9"/>
<circle cx="229.736" cy="142.249" r="2.2682" fill="#D9D9D9"/>
<circle cx="54.7614" cy="142.249" r="2.2682" fill="#D9D9D9"/>
<circle cx="194.741" cy="142.249" r="2.2682" fill="#D9D9D9"/>
<circle cx="124.752" cy="142.249" r="2.2682" fill="#D9D9D9"/>
<circle cx="264.732" cy="142.249" r="2.2682" fill="#D9D9D9"/>
<circle cx="2.2682" cy="37.2638" r="2.2682" fill="#D9D9D9"/>
<circle cx="142.249" cy="37.2635" r="2.2682" fill="#D9D9D9"/>
<circle cx="72.2584" cy="37.2635" r="2.2682" fill="#D9D9D9"/>
<circle cx="212.239" cy="37.2635" r="2.2682" fill="#D9D9D9"/>
<circle cx="37.2633" cy="37.2635" r="2.2682" fill="#D9D9D9"/>
<circle cx="177.243" cy="37.2635" r="2.2682" fill="#D9D9D9"/>
<circle cx="107.255" cy="37.2635" r="2.2682" fill="#D9D9D9"/>
<circle cx="247.234" cy="37.2635" r="2.2682" fill="#D9D9D9"/>
<circle cx="19.7663" cy="37.2635" r="2.2682" fill="#D9D9D9"/>
<circle cx="159.746" cy="37.2635" r="2.2682" fill="#D9D9D9"/>
<circle cx="89.7565" cy="37.2635" r="2.2682" fill="#D9D9D9"/>
<circle cx="229.736" cy="37.2635" r="2.2682" fill="#D9D9D9"/>
<circle cx="54.7614" cy="37.2635" r="2.2682" fill="#D9D9D9"/>
<circle cx="194.741" cy="37.2635" r="2.2682" fill="#D9D9D9"/>
<circle cx="124.752" cy="37.2635" r="2.2682" fill="#D9D9D9"/>
<circle cx="264.732" cy="37.2635" r="2.2682" fill="#D9D9D9"/>
<circle cx="2.2682" cy="107.254" r="2.2682" fill="#D9D9D9"/>
<circle cx="142.249" cy="107.254" r="2.2682" fill="#D9D9D9"/>
<circle cx="72.2584" cy="107.254" r="2.2682" fill="#D9D9D9"/>
<circle cx="212.239" cy="107.254" r="2.2682" fill="#D9D9D9"/>
<circle cx="37.2633" cy="107.254" r="2.2682" fill="#D9D9D9"/>
<circle cx="177.243" cy="107.254" r="2.2682" fill="#D9D9D9"/>
<circle cx="107.255" cy="107.254" r="2.2682" fill="#D9D9D9"/>
<circle cx="247.234" cy="107.254" r="2.2682" fill="#D9D9D9"/>
<circle cx="19.7663" cy="107.254" r="2.2682" fill="#D9D9D9"/>
<circle cx="159.746" cy="107.254" r="2.2682" fill="#D9D9D9"/>
<circle cx="89.7565" cy="107.254" r="2.2682" fill="#D9D9D9"/>
<circle cx="229.736" cy="107.254" r="2.2682" fill="#D9D9D9"/>
<circle cx="54.7614" cy="107.254" r="2.2682" fill="#D9D9D9"/>
<circle cx="194.741" cy="107.254" r="2.2682" fill="#D9D9D9"/>
<circle cx="124.752" cy="107.254" r="2.2682" fill="#D9D9D9"/>
<circle cx="264.732" cy="107.254" r="2.2682" fill="#D9D9D9"/>
<circle cx="2.2682" cy="177.244" r="2.2682" fill="#D9D9D9"/>
<circle cx="142.249" cy="177.244" r="2.2682" fill="#D9D9D9"/>
<circle cx="72.2584" cy="177.244" r="2.2682" fill="#D9D9D9"/>
<circle cx="212.239" cy="177.244" r="2.2682" fill="#D9D9D9"/>
<circle cx="37.2633" cy="177.244" r="2.2682" fill="#D9D9D9"/>
<circle cx="177.243" cy="177.244" r="2.2682" fill="#D9D9D9"/>
<circle cx="107.255" cy="177.244" r="2.2682" fill="#D9D9D9"/>
<circle cx="247.234" cy="177.244" r="2.2682" fill="#D9D9D9"/>
<circle cx="19.7663" cy="177.244" r="2.2682" fill="#D9D9D9"/>
<circle cx="159.746" cy="177.244" r="2.2682" fill="#D9D9D9"/>
<circle cx="89.7565" cy="177.244" r="2.2682" fill="#D9D9D9"/>
<circle cx="229.736" cy="177.244" r="2.2682" fill="#D9D9D9"/>
<circle cx="54.7614" cy="177.244" r="2.2682" fill="#D9D9D9"/>
<circle cx="194.741" cy="177.244" r="2.2682" fill="#D9D9D9"/>
<circle cx="124.752" cy="177.244" r="2.2682" fill="#D9D9D9"/>
<circle cx="264.732" cy="177.244" r="2.2682" fill="#D9D9D9"/>
<circle cx="2.2682" cy="229.737" r="2.2682" fill="#D9D9D9"/>
<circle cx="142.249" cy="229.736" r="2.2682" fill="#D9D9D9"/>
<circle cx="72.2584" cy="229.736" r="2.2682" fill="#D9D9D9"/>
<circle cx="212.239" cy="229.736" r="2.2682" fill="#D9D9D9"/>
<circle cx="37.2633" cy="229.736" r="2.2682" fill="#D9D9D9"/>
<circle cx="177.243" cy="229.736" r="2.2682" fill="#D9D9D9"/>
<circle cx="107.255" cy="229.736" r="2.2682" fill="#D9D9D9"/>
<circle cx="247.234" cy="229.736" r="2.2682" fill="#D9D9D9"/>
<circle cx="19.7663" cy="229.736" r="2.2682" fill="#D9D9D9"/>
<circle cx="159.746" cy="229.736" r="2.2682" fill="#D9D9D9"/>
<circle cx="89.7565" cy="229.736" r="2.2682" fill="#D9D9D9"/>
<circle cx="229.736" cy="229.736" r="2.2682" fill="#D9D9D9"/>
<circle cx="54.7614" cy="229.736" r="2.2682" fill="#D9D9D9"/>
<circle cx="194.741" cy="229.736" r="2.2682" fill="#D9D9D9"/>
<circle cx="124.752" cy="229.736" r="2.2682" fill="#D9D9D9"/>
<circle cx="264.732" cy="229.736" r="2.2682" fill="#D9D9D9"/>
<circle cx="2.2682" cy="19.7657" r="2.2682" fill="#D9D9D9"/>
<circle cx="142.249" cy="19.7657" r="2.2682" fill="#D9D9D9"/>
<circle cx="72.2584" cy="19.7657" r="2.2682" fill="#D9D9D9"/>
<circle cx="212.239" cy="19.7657" r="2.2682" fill="#D9D9D9"/>
<circle cx="37.2633" cy="19.7657" r="2.2682" fill="#D9D9D9"/>
<circle cx="177.243" cy="19.7657" r="2.2682" fill="#D9D9D9"/>
<circle cx="107.255" cy="19.7657" r="2.2682" fill="#D9D9D9"/>
<circle cx="247.234" cy="19.7657" r="2.2682" fill="#D9D9D9"/>
<circle cx="19.7663" cy="19.7657" r="2.2682" fill="#D9D9D9"/>
<circle cx="159.746" cy="19.7657" r="2.2682" fill="#D9D9D9"/>
<circle cx="89.7565" cy="19.7657" r="2.2682" fill="#D9D9D9"/>
<circle cx="229.736" cy="19.7657" r="2.2682" fill="#D9D9D9"/>
<circle cx="54.7614" cy="19.7657" r="2.2682" fill="#D9D9D9"/>
<circle cx="194.741" cy="19.7657" r="2.2682" fill="#D9D9D9"/>
<circle cx="124.752" cy="19.7657" r="2.2682" fill="#D9D9D9"/>
<circle cx="264.732" cy="19.7657" r="2.2682" fill="#D9D9D9"/>
<circle cx="2.2682" cy="89.756" r="2.2682" fill="#D9D9D9"/>
<circle cx="142.249" cy="89.7558" r="2.2682" fill="#D9D9D9"/>
<circle cx="72.2584" cy="89.7558" r="2.2682" fill="#D9D9D9"/>
<circle cx="212.239" cy="89.7558" r="2.2682" fill="#D9D9D9"/>
<circle cx="37.2633" cy="89.7558" r="2.2682" fill="#D9D9D9"/>
<circle cx="177.243" cy="89.7558" r="2.2682" fill="#D9D9D9"/>
<circle cx="107.255" cy="89.7558" r="2.2682" fill="#D9D9D9"/>
<circle cx="247.234" cy="89.7558" r="2.2682" fill="#D9D9D9"/>
<circle cx="19.7663" cy="89.7558" r="2.2682" fill="#D9D9D9"/>
<circle cx="159.746" cy="89.7558" r="2.2682" fill="#D9D9D9"/>
<circle cx="89.7565" cy="89.7558" r="2.2682" fill="#D9D9D9"/>
<circle cx="229.736" cy="89.7558" r="2.2682" fill="#D9D9D9"/>
<circle cx="54.7614" cy="89.7558" r="2.2682" fill="#D9D9D9"/>
<circle cx="194.741" cy="89.7558" r="2.2682" fill="#D9D9D9"/>
<circle cx="124.752" cy="89.7558" r="2.2682" fill="#D9D9D9"/>
<circle cx="264.732" cy="89.7558" r="2.2682" fill="#D9D9D9"/>
<circle cx="2.2682" cy="159.746" r="2.2682" fill="#D9D9D9"/>
<circle cx="142.249" cy="159.746" r="2.2682" fill="#D9D9D9"/>
<circle cx="72.2584" cy="159.746" r="2.2682" fill="#D9D9D9"/>
<circle cx="212.239" cy="159.746" r="2.2682" fill="#D9D9D9"/>
<circle cx="37.2633" cy="159.746" r="2.2682" fill="#D9D9D9"/>
<circle cx="177.243" cy="159.746" r="2.2682" fill="#D9D9D9"/>
<circle cx="107.255" cy="159.746" r="2.2682" fill="#D9D9D9"/>
<circle cx="247.234" cy="159.746" r="2.2682" fill="#D9D9D9"/>
<circle cx="19.7663" cy="159.746" r="2.2682" fill="#D9D9D9"/>
<circle cx="159.746" cy="159.746" r="2.2682" fill="#D9D9D9"/>
<circle cx="89.7565" cy="159.746" r="2.2682" fill="#D9D9D9"/>
<circle cx="229.736" cy="159.746" r="2.2682" fill="#D9D9D9"/>
<circle cx="54.7614" cy="159.746" r="2.2682" fill="#D9D9D9"/>
<circle cx="194.741" cy="159.746" r="2.2682" fill="#D9D9D9"/>
<circle cx="124.752" cy="159.746" r="2.2682" fill="#D9D9D9"/>
<circle cx="264.732" cy="159.746" r="2.2682" fill="#D9D9D9"/>
<circle cx="2.2682" cy="212.239" r="2.2682" fill="#D9D9D9"/>
<circle cx="142.249" cy="212.239" r="2.2682" fill="#D9D9D9"/>
<circle cx="72.2584" cy="212.239" r="2.2682" fill="#D9D9D9"/>
<circle cx="212.239" cy="212.239" r="2.2682" fill="#D9D9D9"/>
<circle cx="37.2633" cy="212.239" r="2.2682" fill="#D9D9D9"/>
<circle cx="177.243" cy="212.239" r="2.2682" fill="#D9D9D9"/>
<circle cx="107.255" cy="212.239" r="2.2682" fill="#D9D9D9"/>
<circle cx="247.234" cy="212.239" r="2.2682" fill="#D9D9D9"/>
<circle cx="19.7663" cy="212.239" r="2.2682" fill="#D9D9D9"/>
<circle cx="159.746" cy="212.239" r="2.2682" fill="#D9D9D9"/>
<circle cx="89.7565" cy="212.239" r="2.2682" fill="#D9D9D9"/>
<circle cx="229.736" cy="212.239" r="2.2682" fill="#D9D9D9"/>
<circle cx="54.7614" cy="212.239" r="2.2682" fill="#D9D9D9"/>
<circle cx="194.741" cy="212.239" r="2.2682" fill="#D9D9D9"/>
<circle cx="124.752" cy="212.239" r="2.2682" fill="#D9D9D9"/>
<circle cx="264.732" cy="212.239" r="2.2682" fill="#D9D9D9"/>
<circle cx="2.2682" cy="54.7609" r="2.2682" fill="#D9D9D9"/>
<circle cx="142.249" cy="54.7608" r="2.2682" fill="#D9D9D9"/>
<circle cx="72.2584" cy="54.7608" r="2.2682" fill="#D9D9D9"/>
<circle cx="212.239" cy="54.7608" r="2.2682" fill="#D9D9D9"/>
<circle cx="37.2633" cy="54.7608" r="2.2682" fill="#D9D9D9"/>
<circle cx="177.243" cy="54.7608" r="2.2682" fill="#D9D9D9"/>
<circle cx="107.255" cy="54.7608" r="2.2682" fill="#D9D9D9"/>
<circle cx="247.234" cy="54.7608" r="2.2682" fill="#D9D9D9"/>
<circle cx="19.7663" cy="54.7608" r="2.2682" fill="#D9D9D9"/>
<circle cx="159.746" cy="54.7608" r="2.2682" fill="#D9D9D9"/>
<circle cx="89.7565" cy="54.7608" r="2.2682" fill="#D9D9D9"/>
<circle cx="229.736" cy="54.7608" r="2.2682" fill="#D9D9D9"/>
<circle cx="54.7614" cy="54.7608" r="2.2682" fill="#D9D9D9"/>
<circle cx="194.741" cy="54.7608" r="2.2682" fill="#D9D9D9"/>
<circle cx="124.752" cy="54.7608" r="2.2682" fill="#D9D9D9"/>
<circle cx="264.732" cy="54.7608" r="2.2682" fill="#D9D9D9"/>
<circle cx="2.2682" cy="124.751" r="2.2682" fill="#D9D9D9"/>
<circle cx="142.249" cy="124.751" r="2.2682" fill="#D9D9D9"/>
<circle cx="72.2584" cy="124.751" r="2.2682" fill="#D9D9D9"/>
<circle cx="212.239" cy="124.751" r="2.2682" fill="#D9D9D9"/>
<circle cx="37.2633" cy="124.751" r="2.2682" fill="#D9D9D9"/>
<circle cx="177.243" cy="124.751" r="2.2682" fill="#D9D9D9"/>
<circle cx="107.255" cy="124.751" r="2.2682" fill="#D9D9D9"/>
<circle cx="247.234" cy="124.751" r="2.2682" fill="#D9D9D9"/>
<circle cx="19.7663" cy="124.751" r="2.2682" fill="#D9D9D9"/>
<circle cx="159.746" cy="124.751" r="2.2682" fill="#D9D9D9"/>
<circle cx="89.7565" cy="124.751" r="2.2682" fill="#D9D9D9"/>
<circle cx="229.736" cy="124.751" r="2.2682" fill="#D9D9D9"/>
<circle cx="54.7614" cy="124.751" r="2.2682" fill="#D9D9D9"/>
<circle cx="194.741" cy="124.751" r="2.2682" fill="#D9D9D9"/>
<circle cx="124.752" cy="124.751" r="2.2682" fill="#D9D9D9"/>
<circle cx="264.732" cy="124.751" r="2.2682" fill="#D9D9D9"/>
<circle cx="2.2682" cy="194.742" r="2.2682" fill="#D9D9D9"/>
<circle cx="142.249" cy="194.741" r="2.2682" fill="#D9D9D9"/>
<circle cx="72.2584" cy="194.741" r="2.2682" fill="#D9D9D9"/>
<circle cx="212.239" cy="194.741" r="2.2682" fill="#D9D9D9"/>
<circle cx="37.2633" cy="194.741" r="2.2682" fill="#D9D9D9"/>
<circle cx="177.243" cy="194.741" r="2.2682" fill="#D9D9D9"/>
<circle cx="107.255" cy="194.741" r="2.2682" fill="#D9D9D9"/>
<circle cx="247.234" cy="194.741" r="2.2682" fill="#D9D9D9"/>
<circle cx="19.7663" cy="194.741" r="2.2682" fill="#D9D9D9"/>
<circle cx="159.746" cy="194.741" r="2.2682" fill="#D9D9D9"/>
<circle cx="89.7565" cy="194.741" r="2.2682" fill="#D9D9D9"/>
<circle cx="229.736" cy="194.741" r="2.2682" fill="#D9D9D9"/>
<circle cx="54.7614" cy="194.741" r="2.2682" fill="#D9D9D9"/>
<circle cx="194.741" cy="194.741" r="2.2682" fill="#D9D9D9"/>
<circle cx="124.752" cy="194.741" r="2.2682" fill="#D9D9D9"/>
<circle cx="264.732" cy="194.741" r="2.2682" fill="#D9D9D9"/>
<circle cx="2.2682" cy="247.235" r="2.2682" fill="#D9D9D9"/>
<circle cx="142.249" cy="247.234" r="2.2682" fill="#D9D9D9"/>
<circle cx="72.2584" cy="247.234" r="2.2682" fill="#D9D9D9"/>
<circle cx="212.239" cy="247.234" r="2.2682" fill="#D9D9D9"/>
<circle cx="37.2633" cy="247.234" r="2.2682" fill="#D9D9D9"/>
<circle cx="177.243" cy="247.234" r="2.2682" fill="#D9D9D9"/>
<circle cx="107.255" cy="247.234" r="2.2682" fill="#D9D9D9"/>
<circle cx="247.234" cy="247.234" r="2.2682" fill="#D9D9D9"/>
<circle cx="19.7663" cy="247.234" r="2.2682" fill="#D9D9D9"/>
<circle cx="159.746" cy="247.234" r="2.2682" fill="#D9D9D9"/>
<circle cx="89.7565" cy="247.234" r="2.2682" fill="#D9D9D9"/>
<circle cx="229.736" cy="247.234" r="2.2682" fill="#D9D9D9"/>
<circle cx="54.7614" cy="247.234" r="2.2682" fill="#D9D9D9"/>
<circle cx="194.741" cy="247.234" r="2.2682" fill="#D9D9D9"/>
<circle cx="124.752" cy="247.234" r="2.2682" fill="#D9D9D9"/>
<circle cx="264.732" cy="247.234" r="2.2682" fill="#D9D9D9"/>
</svg>
