<svg width="25" height="26" viewBox="0 0 25 26" fill="none" xmlns="http://www.w3.org/2000/svg">
<g clip-path="url(#clip0)">
<path d="M19.9223 25.2827H21.4832C21.6992 25.2827 21.8739 25.1081 21.8739 24.8921V23.6823C22.7645 23.5011 23.4371 22.712 23.4371 21.7687V2.23584C23.4371 1.15889 22.561 0.282715 21.484 0.282715H19.9215H17.5754H15.2309H13.2774H11.3239H9.37034H7.41682H5.46877H5.46331H3.51526C2.43831 0.282715 1.56213 1.15889 1.56213 2.23584V21.7687C1.56213 22.7128 2.23596 23.5022 3.12737 23.6823V24.8921C3.12737 25.1081 3.30198 25.2827 3.51799 25.2827H5.07893C5.29495 25.2827 5.46956 25.1081 5.46956 24.8921V23.7218H7.41682H9.37034H11.3239H13.2774H15.2309H17.5754H19.5317V24.8921C19.5317 25.1081 19.7063 25.2827 19.9223 25.2827V25.2827ZM21.0926 24.5015H20.3129V23.7218H21.0926V24.5015ZM16.0231 22.9405H15.2313C14.5852 22.9405 14.0594 22.4147 14.0594 21.7687V2.23584C14.0594 1.58975 14.5852 1.06396 15.2313 1.06396H16.0231C15.775 1.39131 15.6227 1.79443 15.6227 2.23584V21.7687C15.6223 22.2101 15.775 22.6132 16.0231 22.9405ZM13.2774 22.9405C12.6313 22.9405 12.1055 22.4147 12.1055 21.7687V2.23584C12.1055 1.58975 12.6313 1.06396 13.2774 1.06396H13.6781C13.4301 1.39131 13.2778 1.79443 13.2778 2.23584V21.7687C13.2778 22.2101 13.4305 22.6132 13.6781 22.9405H13.2774ZM11.3239 22.9405C10.6778 22.9405 10.152 22.4147 10.152 21.7687V2.23584C10.152 1.58975 10.6778 1.06396 11.3239 1.06396H11.7246C11.4766 1.39131 11.3242 1.79443 11.3242 2.23584V21.7687C11.3242 22.2101 11.477 22.6132 11.7246 22.9405H11.3239ZM9.37034 22.9405C8.72424 22.9405 8.19846 22.4147 8.19846 21.7687V2.23584C8.19846 1.58975 8.72424 1.06396 9.37034 1.06396H9.77112C9.52307 1.39131 9.37073 1.79443 9.37073 2.23584V21.7687C9.37073 22.2101 9.52346 22.6132 9.77112 22.9405H9.37034ZM7.41682 22.9405C6.77073 22.9405 6.24495 22.4147 6.24495 21.7687V2.23584C6.24495 1.58975 6.77073 1.06396 7.41682 1.06396H7.8176C7.56956 1.39131 7.41721 1.79443 7.41721 2.23584V21.7687C7.41721 22.2101 7.56995 22.6132 7.8176 22.9405H7.41682ZM5.46877 1.06396H5.86448C5.61643 1.39131 5.46409 1.79443 5.46409 2.23584V21.7687C5.46409 22.2101 5.61682 22.6132 5.86448 22.9405H5.46877H5.46331C4.81721 22.9405 4.29143 22.4147 4.29143 21.7687V2.23584C4.29143 1.58975 4.81721 1.06396 5.46331 1.06396H5.46877ZM2.34338 21.7687V2.23584C2.34338 1.58975 2.86916 1.06396 3.51526 1.06396H3.91096C3.66292 1.39131 3.51018 1.79443 3.51018 2.23584V21.7687C3.51018 22.2101 3.66291 22.6132 3.91057 22.9405H3.51799H3.51526C2.86916 22.9405 2.34338 22.4147 2.34338 21.7687V21.7687ZM4.68831 24.5015H3.90862V23.7218H4.68831V24.5015ZM16.4035 21.7687V2.23584C16.4035 1.58975 16.9293 1.06396 17.5754 1.06396H19.9215H21.484C22.1301 1.06396 22.6559 1.58975 22.6559 2.23584V21.7687C22.6559 22.4147 22.1301 22.9405 21.484 22.9405H21.4832H19.9223H19.9215H17.5754C16.9293 22.9405 16.4035 22.4147 16.4035 21.7687V21.7687Z" fill="white"/>
<path d="M19.5316 6.92261C20.6086 6.92261 21.4847 6.04643 21.4847 4.96948C21.4847 3.89253 20.6086 3.01636 19.5316 3.01636C18.4547 3.01636 17.5785 3.89253 17.5785 4.96948C17.5785 6.04643 18.4547 6.92261 19.5316 6.92261ZM20.7035 4.96948C20.7035 5.47808 20.3758 5.90737 19.9222 6.06909V3.86987C20.3758 4.03159 20.7035 4.46089 20.7035 4.96948V4.96948ZM19.141 3.86987V6.06948C18.6875 5.90776 18.3597 5.47808 18.3597 4.96987C18.3597 4.46167 18.6875 4.03159 19.141 3.86987V3.86987Z" fill="white"/>
<path d="M19.5316 11.6108C20.6086 11.6108 21.4847 10.7347 21.4847 9.65771C21.4847 8.58076 20.6086 7.70459 19.5316 7.70459C18.4547 7.70459 17.5785 8.58076 17.5785 9.65771C17.5785 10.7347 18.4547 11.6108 19.5316 11.6108ZM20.7035 9.65771C20.7035 10.1663 20.3758 10.5956 19.9222 10.7573V8.55771C20.3758 8.71982 20.7035 9.14912 20.7035 9.65771ZM19.141 8.55811V10.7577C18.6875 10.596 18.3597 10.1663 18.3597 9.65811C18.3597 9.1499 18.6875 8.71982 19.141 8.55811Z" fill="white"/>
<path d="M17.9691 16.3046H21.0941C21.3101 16.3046 21.4847 16.13 21.4847 15.914C21.4847 15.698 21.3101 15.5234 21.0941 15.5234H17.9691C17.7531 15.5234 17.5785 15.698 17.5785 15.914C17.5785 16.13 17.7531 16.3046 17.9691 16.3046Z" fill="white"/>
<path d="M17.9691 17.4709H21.0941C21.3101 17.4709 21.4847 17.2963 21.4847 17.0803C21.4847 16.8643 21.3101 16.6897 21.0941 16.6897H17.9691C17.7531 16.6897 17.5785 16.8643 17.5785 17.0803C17.5785 17.2963 17.7531 17.4709 17.9691 17.4709Z" fill="white"/>
<path d="M17.9691 18.6366H21.0941C21.3101 18.6366 21.4847 18.462 21.4847 18.246C21.4847 18.03 21.3101 17.8553 21.0941 17.8553H17.9691C17.7531 17.8553 17.5785 18.03 17.5785 18.246C17.5785 18.462 17.7531 18.6366 17.9691 18.6366Z" fill="white"/>
<path d="M21.4847 19.4128C21.4847 19.1968 21.3101 19.0222 21.0941 19.0222H17.9691C17.7531 19.0222 17.5785 19.1968 17.5785 19.4128C17.5785 19.6289 17.7531 19.8035 17.9691 19.8035H21.0941C21.3101 19.8035 21.4847 19.6285 21.4847 19.4128Z" fill="white"/>
</g>
<defs>
<clipPath id="clip0">
<rect width="25" height="25" fill="white" transform="translate(0 0.282715)"/>
</clipPath>
</defs>
</svg>
