<svg width="72" height="70" viewBox="0 0 72 70" fill="none" xmlns="http://www.w3.org/2000/svg">
<g clip-path="url(#clip0)">
<path fill="#000000"  d="M64.1547 11.3348L36.7996 0.209026C36.1143 -0.0696069 35.344 -0.0697436 34.6589 0.209026L7.30376 11.3348C6.2619 11.7586 5.58276 12.755 5.58276 13.8601V27.385C5.58276 46.0079 17.0732 62.7596 34.6744 69.7972C35.3505 70.0675 36.1079 70.0675 36.7841 69.7972C54.385 62.7598 65.8757 46.008 65.8757 27.385V13.8601C65.8757 12.755 65.1967 11.7586 64.1547 11.3348ZM60.293 27.385C60.293 43.2164 50.8025 57.7902 35.7292 64.2955C21.0588 57.9639 11.1654 43.6454 11.1654 27.385V15.6856L35.7292 5.695L60.293 15.6856V27.385ZM32.644 36.6018L44.6417 24.849C45.7317 23.7813 47.4991 23.7811 48.5892 24.849C49.6794 25.9169 49.6792 27.6482 48.5891 28.716L34.6177 42.4022C33.5274 43.4703 31.7601 43.4698 30.6702 42.4022L22.8693 34.7605C21.7791 33.6925 21.7791 31.9613 22.8693 30.8935C23.9594 29.8257 25.7267 29.8256 26.8168 30.8935L32.644 36.6018Z" fill="white"/>
</g>
<defs>
<clipPath id="clip0">
<rect width="71.4583" height="70" fill="black"/>
</clipPath>
</defs>
</svg>
