<svg width="25" height="16" viewBox="0 0 25 16" fill="none" xmlns="http://www.w3.org/2000/svg">
<g clip-path="url(#clip0)">
<path d="M22.7186 3.99475C23.3694 3.99475 23.8971 4.52246 23.8971 5.1733C23.8971 5.82414 23.3694 6.35185 22.7186 6.35185C22.0677 6.35185 21.54 5.82414 21.54 5.1733C21.54 4.52246 22.0677 3.99475 22.7186 3.99475Z" stroke="white" stroke-width="0.199961" stroke-miterlimit="10" stroke-linecap="round" stroke-linejoin="round"/>
<path d="M22.7184 4.33984C23.1786 4.33984 23.5516 4.71301 23.5516 5.17308C23.5516 5.63336 23.1784 6.00631 22.7184 6.00631C22.2581 6.00631 21.8851 5.63315 21.8851 5.17308C21.8851 4.7128 22.2583 4.33984 22.7184 4.33984V4.33984Z" stroke="white" stroke-width="0.199961" stroke-miterlimit="10" stroke-linecap="round" stroke-linejoin="round"/>
<path d="M22.7549 4.33545C22.8319 4.33545 22.8944 4.39785 22.8944 4.47491" stroke="white" stroke-width="0.199961" stroke-miterlimit="10" stroke-linecap="round" stroke-linejoin="round"/>
<path d="M22.8945 4.47516V4.7543" stroke="white" stroke-width="0.199961" stroke-miterlimit="10" stroke-linecap="round" stroke-linejoin="round"/>
<path d="M22.8944 4.75433C22.8944 4.8314 22.8319 4.8938 22.7549 4.8938" stroke="white" stroke-width="0.199961" stroke-miterlimit="10" stroke-linecap="round" stroke-linejoin="round"/>
<path d="M22.7549 4.8938C22.6779 4.8938 22.6155 4.8314 22.6155 4.75433" stroke="white" stroke-width="0.199961" stroke-miterlimit="10" stroke-linecap="round" stroke-linejoin="round"/>
<path d="M22.6154 4.7543V4.47516" stroke="white" stroke-width="0.199961" stroke-miterlimit="10" stroke-linecap="round" stroke-linejoin="round"/>
<path d="M22.6154 4.4751C22.6154 4.39804 22.6778 4.33563 22.7548 4.33563" stroke="white" stroke-width="0.199961" stroke-miterlimit="10" stroke-linecap="round" stroke-linejoin="round"/>
<path d="M19.5201 15.1087H0.53894" stroke="white" stroke-width="0.750194" stroke-miterlimit="10" stroke-linecap="round" stroke-linejoin="round"/>
<path d="M0.538861 15.1087C0.337411 15.1087 0.174072 14.9453 0.174072 14.7439" stroke="white" stroke-width="0.750194" stroke-miterlimit="10" stroke-linecap="round" stroke-linejoin="round"/>
<path d="M0.174072 14.7439V0.700562" stroke="white" stroke-width="0.750194" stroke-miterlimit="10" stroke-linecap="round" stroke-linejoin="round"/>
<path d="M0.174072 0.70057C0.174072 0.49891 0.337411 0.335571 0.538861 0.335571" stroke="white" stroke-width="0.750194" stroke-miterlimit="10" stroke-linecap="round" stroke-linejoin="round"/>
<path d="M0.53894 0.335571H19.5201" stroke="white" stroke-width="0.750194" stroke-miterlimit="10" stroke-linecap="round" stroke-linejoin="round"/>
<path d="M19.52 0.335571C19.7215 0.335571 19.885 0.49891 19.885 0.70057" stroke="white" stroke-width="0.750194" stroke-miterlimit="10" stroke-linecap="round" stroke-linejoin="round"/>
<path d="M19.8846 0.700562V14.7439" stroke="white" stroke-width="0.750194" stroke-miterlimit="10" stroke-linecap="round" stroke-linejoin="round"/>
<path d="M19.8849 14.7439C19.8849 14.9453 19.7216 15.1087 19.5199 15.1087" stroke="white" stroke-width="0.750194" stroke-miterlimit="10" stroke-linecap="round" stroke-linejoin="round"/>
<path d="M0.174072 14.248H19.8848" stroke="white" stroke-width="0.750194" stroke-miterlimit="10" stroke-linecap="round" stroke-linejoin="round"/>
<path d="M1.39856 7.68031L7.33821 1.74066M1.39856 5.07444L4.73234 1.74066L1.39856 5.07444Z" stroke="white" stroke-width="0.750194" stroke-miterlimit="10" stroke-linecap="round" stroke-linejoin="round"/>
<path d="M24.461 15.1082H21.0087" stroke="white" stroke-width="0.750194" stroke-miterlimit="10" stroke-linecap="round" stroke-linejoin="round"/>
<path d="M21.0086 15.1083C20.8071 15.1083 20.6438 14.9449 20.6438 14.7435" stroke="white" stroke-width="0.750194" stroke-miterlimit="10" stroke-linecap="round" stroke-linejoin="round"/>
<path d="M20.6437 14.7433V0.70105" stroke="white" stroke-width="0.750194" stroke-miterlimit="10" stroke-linecap="round" stroke-linejoin="round"/>
<path d="M20.6437 0.700997C20.6437 0.499546 20.807 0.335999 21.0085 0.335999" stroke="white" stroke-width="0.750194" stroke-miterlimit="10" stroke-linecap="round" stroke-linejoin="round"/>
<path d="M21.0087 0.335999H24.461" stroke="white" stroke-width="0.750194" stroke-miterlimit="10" stroke-linecap="round" stroke-linejoin="round"/>
<path d="M24.4611 0.335999C24.6625 0.335999 24.8261 0.499337 24.8261 0.700997" stroke="white" stroke-width="0.750194" stroke-miterlimit="10" stroke-linecap="round" stroke-linejoin="round"/>
<path d="M24.826 0.70105V14.7433" stroke="white" stroke-width="0.750194" stroke-miterlimit="10" stroke-linecap="round" stroke-linejoin="round"/>
<path d="M24.8261 14.7432C24.8261 14.9447 24.6627 15.108 24.4611 15.108" stroke="white" stroke-width="0.750194" stroke-miterlimit="10" stroke-linecap="round" stroke-linejoin="round"/>
<path d="M20.6437 14.2476H24.826" stroke="white" stroke-width="0.750194" stroke-miterlimit="10" stroke-linecap="round" stroke-linejoin="round"/>
<path fill-rule="evenodd" clip-rule="evenodd" d="M21.2193 1.60315H24.2444C24.3015 1.60315 24.348 1.64964 24.348 1.70681V2.40016C24.348 2.45733 24.3015 2.50381 24.2444 2.50381H21.2193C21.1621 2.50381 21.1156 2.45733 21.1156 2.40016V1.70681C21.1156 1.64985 21.1621 1.60315 21.2193 1.60315Z" fill="white"/>
<path fill-rule="evenodd" clip-rule="evenodd" d="M21.1589 7.8598H22.4587C22.4826 7.8598 22.5021 7.87928 22.5021 7.90315V8.26668C22.5021 8.29055 22.4826 8.31003 22.4587 8.31003H21.1589C21.1351 8.31003 21.1156 8.29055 21.1156 8.26668V7.90315C21.1156 7.87928 21.1351 7.8598 21.1589 7.8598Z" fill="white"/>
<path fill-rule="evenodd" clip-rule="evenodd" d="M23.0193 7.8598H24.2902C24.3221 7.8598 24.348 7.88577 24.348 7.9176V8.25244C24.348 8.28427 24.3221 8.31024 24.2902 8.31024H23.0193C22.9875 8.31024 22.9615 8.28427 22.9615 8.25244V7.9176C22.9615 7.88577 22.9875 7.8598 23.0193 7.8598Z" fill="white"/>
<path fill-rule="evenodd" clip-rule="evenodd" d="M21.1589 8.78668H22.4587C22.4826 8.78668 22.5021 8.80616 22.5021 8.83003V9.19356C22.5021 9.21743 22.4826 9.23691 22.4587 9.23691H21.1589C21.1351 9.23691 21.1156 9.21743 21.1156 9.19356V8.83003C21.1156 8.80616 21.1351 8.78668 21.1589 8.78668Z" fill="white"/>
<path fill-rule="evenodd" clip-rule="evenodd" d="M23.0193 8.78668H24.2902C24.3221 8.78668 24.348 8.81265 24.348 8.84448V9.17932C24.348 9.21115 24.3221 9.23712 24.2902 9.23712H23.0193C22.9875 9.23712 22.9615 9.21115 22.9615 9.17932V8.84448C22.9615 8.81265 22.9875 8.78668 23.0193 8.78668Z" fill="white"/>
<path fill-rule="evenodd" clip-rule="evenodd" d="M21.1589 9.71368H22.4587C22.4826 9.71368 22.5021 9.73316 22.5021 9.75703V10.1206C22.5021 10.1444 22.4826 10.1639 22.4587 10.1639H21.1589C21.1351 10.1639 21.1156 10.1444 21.1156 10.1206V9.75703C21.1156 9.73316 21.1351 9.71368 21.1589 9.71368Z" fill="white"/>
<path fill-rule="evenodd" clip-rule="evenodd" d="M23.0193 9.71368H24.2902C24.3221 9.71368 24.348 9.73965 24.348 9.77148V10.1063C24.348 10.1382 24.3221 10.1641 24.2902 10.1641H23.0193C22.9875 10.1641 22.9615 10.1382 22.9615 10.1063V9.77148C22.9615 9.73965 22.9875 9.71368 23.0193 9.71368Z" fill="white"/>
<path fill-rule="evenodd" clip-rule="evenodd" d="M21.1589 10.6406H22.4587C22.4826 10.6406 22.5021 10.66 22.5021 10.6839V11.0474C22.5021 11.0713 22.4826 11.0908 22.4587 11.0908H21.1589C21.1351 11.0908 21.1156 11.0713 21.1156 11.0474V10.6839C21.1156 10.66 21.1351 10.6406 21.1589 10.6406Z" fill="white"/>
<path fill-rule="evenodd" clip-rule="evenodd" d="M23.0193 10.6406H24.2902C24.3221 10.6406 24.348 10.6665 24.348 10.6984V11.0332C24.348 11.065 24.3221 11.091 24.2902 11.091H23.0193C22.9875 11.091 22.9615 11.065 22.9615 11.0332V10.6984C22.9615 10.6665 22.9875 10.6406 23.0193 10.6406V10.6406Z" fill="white"/>
</g>
<defs>
<clipPath id="clip0">
<rect width="25" height="15.1212" fill="white" transform="translate(0 0.16156)"/>
</clipPath>
</defs>
</svg>
