<svg width="25" height="17" viewBox="0 0 25 17" fill="none" xmlns="http://www.w3.org/2000/svg">
<g clip-path="url(#clip0)">
<path d="M2.547 13.1876L8.99615 6.7384M2.547 10.3583L6.16693 6.7384L2.547 10.3583Z" stroke="white" stroke-width="0.500584" stroke-miterlimit="10" stroke-linecap="round" stroke-linejoin="round"/>
<path fill-rule="evenodd" clip-rule="evenodd" d="M0.189087 0.595764H24.8111V2.4825H0.189087V0.595764Z" stroke="white" stroke-width="0.75029" stroke-miterlimit="22.9256"/>
<path fill-rule="evenodd" clip-rule="evenodd" d="M0.189087 3.63049H24.8111V15.9725H0.189087V3.63049Z" stroke="white" stroke-width="0.75029" stroke-miterlimit="22.9256"/>
<path d="M0.723511 2.48248V3.63047" stroke="white" stroke-width="0.200468" stroke-miterlimit="22.9256"/>
<path d="M24.2607 2.48248V3.63047" stroke="white" stroke-width="0.200468" stroke-miterlimit="22.9256"/>
<path fill-rule="evenodd" clip-rule="evenodd" d="M10.5511 1.45441H14.4498V1.62389H10.5511V1.45441Z" stroke="white" stroke-width="0.249706" stroke-miterlimit="22.9256"/>
<path fill-rule="evenodd" clip-rule="evenodd" d="M20.4849 12.9791H23.7588C23.8527 12.9791 23.9294 13.0559 23.9294 13.1504V14.8068C23.9294 14.9007 23.8527 14.9775 23.7588 14.9775H20.4849C20.391 14.9775 20.3142 14.9007 20.3142 14.8068V13.1504C20.3142 13.0565 20.391 12.9791 20.4849 12.9791Z" stroke="white" stroke-width="0.249706" stroke-miterlimit="22.9256"/>
<path d="M22.122 13.3352C22.4769 13.3352 22.7651 13.6228 22.7651 13.9783C22.7651 14.3332 22.4775 14.6214 22.122 14.6214C21.7671 14.6214 21.4789 14.3338 21.4789 13.9783C21.4789 13.6234 21.7665 13.3352 22.122 13.3352Z" stroke="white" stroke-width="0.0762013" stroke-miterlimit="10" stroke-linecap="round" stroke-linejoin="round"/>
<path d="M22.1219 13.5236C22.3729 13.5236 22.5767 13.7274 22.5767 13.9783C22.5767 14.2293 22.3729 14.433 22.1219 14.433C21.871 14.433 21.6672 14.2293 21.6672 13.9783C21.6672 13.7274 21.871 13.5236 22.1219 13.5236Z" stroke="white" stroke-width="0.0762013" stroke-miterlimit="10" stroke-linecap="round" stroke-linejoin="round"/>
<path d="M22.1421 13.5212C22.184 13.5212 22.2183 13.5555 22.2183 13.5974" stroke="white" stroke-width="0.0762013" stroke-miterlimit="10" stroke-linecap="round" stroke-linejoin="round"/>
<path d="M22.2181 13.5974V13.7498" stroke="white" stroke-width="0.0762013" stroke-miterlimit="10" stroke-linecap="round" stroke-linejoin="round"/>
<path d="M22.2183 13.7498C22.2183 13.7917 22.184 13.8259 22.1421 13.8259" stroke="white" stroke-width="0.0762013" stroke-miterlimit="10" stroke-linecap="round" stroke-linejoin="round"/>
<path d="M22.1419 13.8259C22.0999 13.8259 22.0657 13.7917 22.0657 13.7498" stroke="white" stroke-width="0.0762013" stroke-miterlimit="10" stroke-linecap="round" stroke-linejoin="round"/>
<path d="M22.0657 13.7498V13.5974" stroke="white" stroke-width="0.0762013" stroke-miterlimit="10" stroke-linecap="round" stroke-linejoin="round"/>
<path d="M22.0657 13.5974C22.0657 13.5555 22.0999 13.5212 22.1419 13.5212" stroke="white" stroke-width="0.0762013" stroke-miterlimit="10" stroke-linecap="round" stroke-linejoin="round"/>
</g>
<defs>
<clipPath id="clip0">
<rect width="25" height="15.7548" fill="white" transform="translate(0 0.406738)"/>
</clipPath>
</defs>
</svg>
