<svg width="47" height="55" viewBox="0 0 47 55" fill="none" xmlns="http://www.w3.org/2000/svg">
<g clip-path="url(#clip0)">
<path d="M45.6981 52.8342C45.6981 53.491 45.1656 54.0236 44.5088 54.0236" stroke="black" stroke-width="0.999952" stroke-miterlimit="10" stroke-linecap="round" stroke-linejoin="round"/>
<path d="M44.5087 54.0236H1.68945" stroke="black" stroke-width="0.999952" stroke-miterlimit="10" stroke-linecap="round" stroke-linejoin="round"/>
<path d="M1.68947 54.0236C1.03253 54.0236 0.5 53.491 0.5 52.8342" stroke="black" stroke-width="0.999952" stroke-miterlimit="10" stroke-linecap="round" stroke-linejoin="round"/>
<path d="M0.5 52.8343V1.68945" stroke="black" stroke-width="0.999952" stroke-miterlimit="10" stroke-linecap="round" stroke-linejoin="round"/>
<path d="M0.5 1.68945C0.5 1.03252 1.03253 0.500122 1.68947 0.500122" stroke="black" stroke-width="0.999952" stroke-miterlimit="10" stroke-linecap="round" stroke-linejoin="round"/>
<path d="M1.68945 0.5H44.5087" stroke="black" stroke-width="0.999952" stroke-miterlimit="10" stroke-linecap="round" stroke-linejoin="round"/>
<path d="M44.5088 0.5C45.1656 0.5 45.6981 1.03239 45.6981 1.68933" stroke="black" stroke-width="0.999952" stroke-miterlimit="10" stroke-linecap="round" stroke-linejoin="round"/>
<path d="M45.698 1.68945V52.8343" stroke="black" stroke-width="0.999952" stroke-miterlimit="10" stroke-linecap="round" stroke-linejoin="round"/>
<path d="M4.84526 4.04321C6.10871 4.04321 7.1329 5.06755 7.1329 6.33086C7.1329 7.5943 6.10857 8.6185 4.84526 8.6185C3.58181 8.6185 2.55762 7.5943 2.55762 6.33086C2.55762 5.06741 3.58181 4.04321 4.84526 4.04321Z" stroke="black" stroke-width="0.200046" stroke-miterlimit="10" stroke-linecap="round" stroke-linejoin="round"/>
<path d="M4.84522 4.71332C5.73864 4.71332 6.46277 5.43758 6.46277 6.33086C6.46277 7.22428 5.7385 7.94855 4.84522 7.94855C3.9518 7.94855 3.22754 7.22428 3.22754 6.33086C3.22754 5.43744 3.9518 4.71332 4.84522 4.71332Z" stroke="black" stroke-width="0.200046" stroke-miterlimit="10" stroke-linecap="round" stroke-linejoin="round"/>
<path d="M0.5 12.2357H45.698" stroke="black" stroke-width="0.999952" stroke-miterlimit="10" stroke-linecap="round" stroke-linejoin="round"/>
<path d="M4.91577 4.70471C5.06539 4.70471 5.18661 4.82593 5.18661 4.97555" stroke="black" stroke-width="0.200046" stroke-miterlimit="10" stroke-linecap="round" stroke-linejoin="round"/>
<path d="M5.18677 4.97565V5.51732" stroke="black" stroke-width="0.200046" stroke-miterlimit="10" stroke-linecap="round" stroke-linejoin="round"/>
<path d="M5.18661 5.51733C5.18661 5.66695 5.06525 5.78817 4.91577 5.78817" stroke="black" stroke-width="0.200046" stroke-miterlimit="10" stroke-linecap="round" stroke-linejoin="round"/>
<path d="M4.91586 5.78835C4.76624 5.78835 4.64502 5.667 4.64502 5.51752" stroke="black" stroke-width="0.200046" stroke-miterlimit="10" stroke-linecap="round" stroke-linejoin="round"/>
<path d="M4.64478 5.51732V4.97565" stroke="black" stroke-width="0.200046" stroke-miterlimit="10" stroke-linecap="round" stroke-linejoin="round"/>
<path d="M4.64478 4.97567C4.64478 4.82591 4.76613 4.70483 4.91561 4.70483" stroke="black" stroke-width="0.200046" stroke-miterlimit="10" stroke-linecap="round" stroke-linejoin="round"/>
<path d="M40.1448 4.04321C41.4083 4.04321 42.4325 5.06755 42.4325 6.33086C42.4325 7.5943 41.4081 8.6185 40.1448 8.6185C38.8814 8.6185 37.8572 7.5943 37.8572 6.33086C37.8572 5.06741 38.8814 4.04321 40.1448 4.04321Z" stroke="black" stroke-width="0.200046" stroke-miterlimit="10" stroke-linecap="round" stroke-linejoin="round"/>
<path d="M40.145 4.71332C41.0384 4.71332 41.7626 5.43758 41.7626 6.33086C41.7626 7.22428 41.0383 7.94855 40.145 7.94855C39.2516 7.94855 38.5273 7.22428 38.5273 6.33086C38.5273 5.43744 39.2516 4.71332 40.145 4.71332Z" stroke="black" stroke-width="0.200046" stroke-miterlimit="10" stroke-linecap="round" stroke-linejoin="round"/>
<path d="M40.2153 4.70471C40.365 4.70471 40.4862 4.82593 40.4862 4.97555" stroke="black" stroke-width="0.200046" stroke-miterlimit="10" stroke-linecap="round" stroke-linejoin="round"/>
<path d="M40.4863 4.97565V5.51732" stroke="black" stroke-width="0.200046" stroke-miterlimit="10" stroke-linecap="round" stroke-linejoin="round"/>
<path d="M40.4864 5.51733C40.4864 5.66695 40.3651 5.78817 40.2156 5.78817" stroke="black" stroke-width="0.200046" stroke-miterlimit="10" stroke-linecap="round" stroke-linejoin="round"/>
<path d="M40.2154 5.78835C40.0658 5.78835 39.9446 5.667 39.9446 5.51752" stroke="black" stroke-width="0.200046" stroke-miterlimit="10" stroke-linecap="round" stroke-linejoin="round"/>
<path d="M39.9446 5.51732V4.97565" stroke="black" stroke-width="0.200046" stroke-miterlimit="10" stroke-linecap="round" stroke-linejoin="round"/>
<path d="M39.9446 4.97567C39.9446 4.82591 40.0659 4.70483 40.2154 4.70483" stroke="black" stroke-width="0.200046" stroke-miterlimit="10" stroke-linecap="round" stroke-linejoin="round"/>
<path d="M34.1712 4.04321C35.4346 4.04321 36.4588 5.06755 36.4588 6.33086C36.4588 7.5943 35.4345 8.6185 34.1712 8.6185C32.9077 8.6185 31.8835 7.5943 31.8835 6.33086C31.8835 5.06741 32.9077 4.04321 34.1712 4.04321Z" stroke="black" stroke-width="0.200046" stroke-miterlimit="10" stroke-linecap="round" stroke-linejoin="round"/>
<path d="M34.1712 4.71332C35.0646 4.71332 35.7887 5.43758 35.7887 6.33086C35.7887 7.22428 35.0644 7.94855 34.1712 7.94855C33.2777 7.94855 32.5535 7.22428 32.5535 6.33086C32.5535 5.43744 33.2777 4.71332 34.1712 4.71332Z" stroke="black" stroke-width="0.200046" stroke-miterlimit="10" stroke-linecap="round" stroke-linejoin="round"/>
<path d="M34.2417 4.70471C34.3913 4.70471 34.5125 4.82593 34.5125 4.97555" stroke="black" stroke-width="0.200046" stroke-miterlimit="10" stroke-linecap="round" stroke-linejoin="round"/>
<path d="M34.5127 4.97565V5.51732" stroke="black" stroke-width="0.200046" stroke-miterlimit="10" stroke-linecap="round" stroke-linejoin="round"/>
<path d="M34.5125 5.51733C34.5125 5.66695 34.3912 5.78817 34.2417 5.78817" stroke="black" stroke-width="0.200046" stroke-miterlimit="10" stroke-linecap="round" stroke-linejoin="round"/>
<path d="M34.2415 5.78835C34.0919 5.78835 33.9707 5.667 33.9707 5.51752" stroke="black" stroke-width="0.200046" stroke-miterlimit="10" stroke-linecap="round" stroke-linejoin="round"/>
<path d="M33.9707 5.51732V4.97565" stroke="black" stroke-width="0.200046" stroke-miterlimit="10" stroke-linecap="round" stroke-linejoin="round"/>
<path d="M33.9707 4.97567C33.9707 4.82591 34.0921 4.70483 34.2415 4.70483" stroke="black" stroke-width="0.200046" stroke-miterlimit="10" stroke-linecap="round" stroke-linejoin="round"/>
<path d="M28.1973 4.04321C29.4608 4.04321 30.485 5.06755 30.485 6.33086C30.485 7.5943 29.4606 8.6185 28.1973 8.6185C26.9339 8.6185 25.9097 7.5943 25.9097 6.33086C25.9097 5.06741 26.9339 4.04321 28.1973 4.04321Z" stroke="black" stroke-width="0.200046" stroke-miterlimit="10" stroke-linecap="round" stroke-linejoin="round"/>
<path d="M28.1973 4.71332C29.0907 4.71332 29.8148 5.43758 29.8148 6.33086C29.8148 7.22428 29.0906 7.94855 28.1973 7.94855C27.3039 7.94855 26.5796 7.22428 26.5796 6.33086C26.5796 5.43744 27.3039 4.71332 28.1973 4.71332V4.71332Z" stroke="black" stroke-width="0.200046" stroke-miterlimit="10" stroke-linecap="round" stroke-linejoin="round"/>
<path d="M28.2678 4.70471C28.4174 4.70471 28.5387 4.82593 28.5387 4.97555" stroke="black" stroke-width="0.200046" stroke-miterlimit="10" stroke-linecap="round" stroke-linejoin="round"/>
<path d="M28.5388 4.97565V5.51732" stroke="black" stroke-width="0.200046" stroke-miterlimit="10" stroke-linecap="round" stroke-linejoin="round"/>
<path d="M28.5389 5.51733C28.5389 5.66695 28.4175 5.78817 28.2681 5.78817" stroke="black" stroke-width="0.200046" stroke-miterlimit="10" stroke-linecap="round" stroke-linejoin="round"/>
<path d="M28.2679 5.78835C28.1183 5.78835 27.9971 5.667 27.9971 5.51752" stroke="black" stroke-width="0.200046" stroke-miterlimit="10" stroke-linecap="round" stroke-linejoin="round"/>
<path d="M27.9971 5.51732V4.97565" stroke="black" stroke-width="0.200046" stroke-miterlimit="10" stroke-linecap="round" stroke-linejoin="round"/>
<path d="M27.9971 4.97567C27.9971 4.82591 28.1184 4.70483 28.2679 4.70483" stroke="black" stroke-width="0.200046" stroke-miterlimit="10" stroke-linecap="round" stroke-linejoin="round"/>
<path d="M41.0217 39.2859H4.95358M42.0248 38.7825C42.0248 39.0605 41.5757 39.2859 41.0217 39.2859L42.0248 38.7825ZM42.0248 17.1595V38.7825V17.1595ZM41.0217 16.6566C41.5757 16.6566 42.0248 16.8815 42.0248 17.1595L41.0217 16.6566ZM4.95358 16.6566H41.0217H4.95358ZM3.95044 17.1595C3.95044 16.8815 4.39957 16.6566 4.95358 16.6566L3.95044 17.1595ZM3.95044 38.7825V17.1595V38.7825ZM4.95358 39.2859C4.39971 39.2859 3.95044 39.0605 3.95044 38.7825L4.95358 39.2859Z" stroke="black" stroke-width="0.999952" stroke-miterlimit="10" stroke-linecap="round" stroke-linejoin="round"/>
<path d="M6.23901 32.7777L20.159 18.8578M6.23901 26.6709L14.0523 18.8578L6.23901 26.6709Z" stroke="black" stroke-width="0.499976" stroke-miterlimit="10" stroke-linecap="round" stroke-linejoin="round"/>
<path d="M0.5 42.7063H45.698" stroke="black" stroke-width="0.999952" stroke-miterlimit="10" stroke-linecap="round" stroke-linejoin="round"/>
<path d="M22.2237 4.04321C23.4871 4.04321 24.5113 5.06755 24.5113 6.33086C24.5113 7.5943 23.4871 8.6185 22.2237 8.6185C20.9602 8.6185 19.936 7.5943 19.936 6.33086C19.936 5.06741 20.9602 4.04321 22.2237 4.04321V4.04321Z" stroke="black" stroke-width="0.200046" stroke-miterlimit="10" stroke-linecap="round" stroke-linejoin="round"/>
<path d="M22.2236 4.71332C23.1171 4.71332 23.8412 5.43758 23.8412 6.33086C23.8412 7.22428 23.1169 7.94855 22.2236 7.94855C21.3302 7.94855 20.606 7.22428 20.606 6.33086C20.606 5.43744 21.3302 4.71332 22.2236 4.71332Z" stroke="black" stroke-width="0.200046" stroke-miterlimit="10" stroke-linecap="round" stroke-linejoin="round"/>
<path d="M22.2939 4.70471C22.4436 4.70471 22.5648 4.82593 22.5648 4.97555" stroke="black" stroke-width="0.200046" stroke-miterlimit="10" stroke-linecap="round" stroke-linejoin="round"/>
<path d="M22.5649 4.97565V5.51732" stroke="black" stroke-width="0.200046" stroke-miterlimit="10" stroke-linecap="round" stroke-linejoin="round"/>
<path d="M22.565 5.51733C22.565 5.66695 22.4437 5.78817 22.2942 5.78817" stroke="black" stroke-width="0.200046" stroke-miterlimit="10" stroke-linecap="round" stroke-linejoin="round"/>
<path d="M22.294 5.78835C22.1444 5.78835 22.0232 5.667 22.0232 5.51752" stroke="black" stroke-width="0.200046" stroke-miterlimit="10" stroke-linecap="round" stroke-linejoin="round"/>
<path d="M22.0232 5.51732V4.97565" stroke="black" stroke-width="0.200046" stroke-miterlimit="10" stroke-linecap="round" stroke-linejoin="round"/>
<path d="M22.0232 4.97567C22.0232 4.82591 22.1446 4.70483 22.294 4.70483" stroke="black" stroke-width="0.200046" stroke-miterlimit="10" stroke-linecap="round" stroke-linejoin="round"/>
</g>
<defs>
<clipPath id="clip0">
<rect width="46.1981" height="54.5237" fill="white"/>
</clipPath>
</defs>
</svg>
