<svg width="22" height="26" viewBox="0 0 22 26" fill="none" xmlns="http://www.w3.org/2000/svg">
<g clip-path="url(#clip0)">
<path d="M20.9532 24.2684C20.9532 24.5696 20.709 24.8137 20.4078 24.8137" stroke="white" stroke-width="0.999952" stroke-miterlimit="10" stroke-linecap="round" stroke-linejoin="round"/>
<path d="M20.408 24.8138H0.774658" stroke="white" stroke-width="0.999952" stroke-miterlimit="10" stroke-linecap="round" stroke-linejoin="round"/>
<path d="M0.774639 24.8137C0.473423 24.8137 0.229248 24.5696 0.229248 24.2684" stroke="white" stroke-width="0.999952" stroke-miterlimit="10" stroke-linecap="round" stroke-linejoin="round"/>
<path d="M0.229248 24.2684V0.817688" stroke="white" stroke-width="0.999952" stroke-miterlimit="10" stroke-linecap="round" stroke-linejoin="round"/>
<path d="M0.229248 0.817758C0.229248 0.516541 0.473423 0.27243 0.774639 0.27243" stroke="white" stroke-width="0.999952" stroke-miterlimit="10" stroke-linecap="round" stroke-linejoin="round"/>
<path d="M0.774658 0.272278H20.408" stroke="white" stroke-width="0.999952" stroke-miterlimit="10" stroke-linecap="round" stroke-linejoin="round"/>
<path d="M20.4078 0.272278C20.709 0.272278 20.9532 0.516389 20.9532 0.817605" stroke="white" stroke-width="0.999952" stroke-miterlimit="10" stroke-linecap="round" stroke-linejoin="round"/>
<path d="M20.9531 0.817688V24.2684" stroke="white" stroke-width="0.999952" stroke-miterlimit="10" stroke-linecap="round" stroke-linejoin="round"/>
<path d="M2.22165 1.89688C2.80096 1.89688 3.27057 2.36655 3.27057 2.9458C3.27057 3.52511 2.8009 3.99472 2.22165 3.99472C1.64234 3.99472 1.17273 3.52511 1.17273 2.9458C1.17273 2.36649 1.64234 1.89688 2.22165 1.89688Z" stroke="white" stroke-width="0.200046" stroke-miterlimit="10" stroke-linecap="round" stroke-linejoin="round"/>
<path d="M2.22171 2.20416C2.63136 2.20416 2.96338 2.53625 2.96338 2.94583C2.96338 3.35548 2.6313 3.68757 2.22171 3.68757C1.81207 3.68757 1.47998 3.35548 1.47998 2.94583C1.47998 2.53619 1.81207 2.20416 2.22171 2.20416Z" stroke="white" stroke-width="0.200046" stroke-miterlimit="10" stroke-linecap="round" stroke-linejoin="round"/>
<path d="M0.229248 5.65329H20.9533" stroke="white" stroke-width="0.999952" stroke-miterlimit="10" stroke-linecap="round" stroke-linejoin="round"/>
<path d="M2.25391 2.2002C2.32251 2.2002 2.37809 2.25578 2.37809 2.32438" stroke="white" stroke-width="0.200046" stroke-miterlimit="10" stroke-linecap="round" stroke-linejoin="round"/>
<path d="M2.3783 2.32443V2.5728" stroke="white" stroke-width="0.200046" stroke-miterlimit="10" stroke-linecap="round" stroke-linejoin="round"/>
<path d="M2.37809 2.57281C2.37809 2.64142 2.32245 2.697 2.25391 2.697" stroke="white" stroke-width="0.200046" stroke-miterlimit="10" stroke-linecap="round" stroke-linejoin="round"/>
<path d="M2.25394 2.69709C2.18534 2.69709 2.12976 2.64145 2.12976 2.57291" stroke="white" stroke-width="0.200046" stroke-miterlimit="10" stroke-linecap="round" stroke-linejoin="round"/>
<path d="M2.12964 2.5728V2.32443" stroke="white" stroke-width="0.200046" stroke-miterlimit="10" stroke-linecap="round" stroke-linejoin="round"/>
<path d="M2.12964 2.32444C2.12964 2.25577 2.18528 2.20026 2.25382 2.20026" stroke="white" stroke-width="0.200046" stroke-miterlimit="10" stroke-linecap="round" stroke-linejoin="round"/>
<path d="M18.4071 1.89688C18.9864 1.89688 19.456 2.36655 19.456 2.9458C19.456 3.52511 18.9863 3.99472 18.4071 3.99472C17.8278 3.99472 17.3582 3.52511 17.3582 2.9458C17.3582 2.36649 17.8278 1.89688 18.4071 1.89688Z" stroke="white" stroke-width="0.200046" stroke-miterlimit="10" stroke-linecap="round" stroke-linejoin="round"/>
<path d="M18.407 2.20416C18.8167 2.20416 19.1487 2.53625 19.1487 2.94583C19.1487 3.35548 18.8166 3.68757 18.407 3.68757C17.9974 3.68757 17.6653 3.35548 17.6653 2.94583C17.6653 2.53619 17.9974 2.20416 18.407 2.20416Z" stroke="white" stroke-width="0.200046" stroke-miterlimit="10" stroke-linecap="round" stroke-linejoin="round"/>
<path d="M18.4395 2.2002C18.5081 2.2002 18.5636 2.25578 18.5636 2.32438" stroke="white" stroke-width="0.200046" stroke-miterlimit="10" stroke-linecap="round" stroke-linejoin="round"/>
<path d="M18.5637 2.32443V2.5728" stroke="white" stroke-width="0.200046" stroke-miterlimit="10" stroke-linecap="round" stroke-linejoin="round"/>
<path d="M18.5635 2.57281C18.5635 2.64142 18.5079 2.697 18.4393 2.697" stroke="white" stroke-width="0.200046" stroke-miterlimit="10" stroke-linecap="round" stroke-linejoin="round"/>
<path d="M18.4394 2.69709C18.3708 2.69709 18.3152 2.64145 18.3152 2.57291" stroke="white" stroke-width="0.200046" stroke-miterlimit="10" stroke-linecap="round" stroke-linejoin="round"/>
<path d="M18.3152 2.5728V2.32443" stroke="white" stroke-width="0.200046" stroke-miterlimit="10" stroke-linecap="round" stroke-linejoin="round"/>
<path d="M18.3152 2.32444C18.3152 2.25577 18.3708 2.20026 18.4394 2.20026" stroke="white" stroke-width="0.200046" stroke-miterlimit="10" stroke-linecap="round" stroke-linejoin="round"/>
<path d="M15.6681 1.89688C16.2474 1.89688 16.717 2.36655 16.717 2.9458C16.717 3.52511 16.2473 3.99472 15.6681 3.99472C15.0888 3.99472 14.6191 3.52511 14.6191 2.9458C14.6191 2.36649 15.0888 1.89688 15.6681 1.89688Z" stroke="white" stroke-width="0.200046" stroke-miterlimit="10" stroke-linecap="round" stroke-linejoin="round"/>
<path d="M15.6681 2.20416C16.0778 2.20416 16.4098 2.53625 16.4098 2.94583C16.4098 3.35548 16.0777 3.68757 15.6681 3.68757C15.2585 3.68757 14.9264 3.35548 14.9264 2.94583C14.9264 2.53619 15.2585 2.20416 15.6681 2.20416Z" stroke="white" stroke-width="0.200046" stroke-miterlimit="10" stroke-linecap="round" stroke-linejoin="round"/>
<path d="M15.7003 2.2002C15.7689 2.2002 15.8245 2.25578 15.8245 2.32438" stroke="white" stroke-width="0.200046" stroke-miterlimit="10" stroke-linecap="round" stroke-linejoin="round"/>
<path d="M15.8246 2.32443V2.5728" stroke="white" stroke-width="0.200046" stroke-miterlimit="10" stroke-linecap="round" stroke-linejoin="round"/>
<path d="M15.8246 2.57281C15.8246 2.64142 15.769 2.697 15.7004 2.697" stroke="white" stroke-width="0.200046" stroke-miterlimit="10" stroke-linecap="round" stroke-linejoin="round"/>
<path d="M15.7004 2.69709C15.6318 2.69709 15.5762 2.64145 15.5762 2.57291" stroke="white" stroke-width="0.200046" stroke-miterlimit="10" stroke-linecap="round" stroke-linejoin="round"/>
<path d="M15.5762 2.5728V2.32443" stroke="white" stroke-width="0.200046" stroke-miterlimit="10" stroke-linecap="round" stroke-linejoin="round"/>
<path d="M15.5762 2.32444C15.5762 2.25577 15.6318 2.20026 15.7004 2.20026" stroke="white" stroke-width="0.200046" stroke-miterlimit="10" stroke-linecap="round" stroke-linejoin="round"/>
<path d="M12.9289 1.89688C13.5082 1.89688 13.9778 2.36655 13.9778 2.9458C13.9778 3.52511 13.5082 3.99472 12.9289 3.99472C12.3496 3.99472 11.88 3.52511 11.88 2.9458C11.88 2.36649 12.3496 1.89688 12.9289 1.89688Z" stroke="white" stroke-width="0.200046" stroke-miterlimit="10" stroke-linecap="round" stroke-linejoin="round"/>
<path d="M12.929 2.20416C13.3386 2.20416 13.6707 2.53625 13.6707 2.94583C13.6707 3.35548 13.3386 3.68757 12.929 3.68757C12.5193 3.68757 12.1873 3.35548 12.1873 2.94583C12.1873 2.53619 12.5193 2.20416 12.929 2.20416V2.20416Z" stroke="white" stroke-width="0.200046" stroke-miterlimit="10" stroke-linecap="round" stroke-linejoin="round"/>
<path d="M12.9612 2.2002C13.0298 2.2002 13.0854 2.25578 13.0854 2.32438" stroke="white" stroke-width="0.200046" stroke-miterlimit="10" stroke-linecap="round" stroke-linejoin="round"/>
<path d="M13.0853 2.32443V2.5728" stroke="white" stroke-width="0.200046" stroke-miterlimit="10" stroke-linecap="round" stroke-linejoin="round"/>
<path d="M13.0855 2.57281C13.0855 2.64142 13.0298 2.697 12.9613 2.697" stroke="white" stroke-width="0.200046" stroke-miterlimit="10" stroke-linecap="round" stroke-linejoin="round"/>
<path d="M12.9612 2.69709C12.8926 2.69709 12.837 2.64145 12.837 2.57291" stroke="white" stroke-width="0.200046" stroke-miterlimit="10" stroke-linecap="round" stroke-linejoin="round"/>
<path d="M12.837 2.5728V2.32443" stroke="white" stroke-width="0.200046" stroke-miterlimit="10" stroke-linecap="round" stroke-linejoin="round"/>
<path d="M12.837 2.32444C12.837 2.25577 12.8927 2.20026 12.9612 2.20026" stroke="white" stroke-width="0.200046" stroke-miterlimit="10" stroke-linecap="round" stroke-linejoin="round"/>
<path d="M18.8092 18.0562H2.27136M19.2691 17.8254C19.2691 17.9529 19.0632 18.0562 18.8092 18.0562L19.2691 17.8254ZM19.2691 7.91091V17.8254V7.91091ZM18.8092 7.68033C19.0632 7.68033 19.2691 7.78342 19.2691 7.91091L18.8092 7.68033ZM2.27136 7.68033H18.8092H2.27136ZM1.8114 7.91091C1.8114 7.78342 2.01734 7.68033 2.27136 7.68033L1.8114 7.91091ZM1.8114 17.8254V7.91091V17.8254ZM2.27136 18.0562C2.0174 18.0562 1.8114 17.9529 1.8114 17.8254L2.27136 18.0562Z" stroke="white" stroke-width="0.999952" stroke-miterlimit="10" stroke-linecap="round" stroke-linejoin="round"/>
<path d="M2.86084 15.0722L9.24336 8.68964M2.86084 12.2721L6.44336 8.68964L2.86084 12.2721Z" stroke="white" stroke-width="0.499976" stroke-miterlimit="10" stroke-linecap="round" stroke-linejoin="round"/>
<path d="M0.229248 19.6246H20.9533" stroke="white" stroke-width="0.999952" stroke-miterlimit="10" stroke-linecap="round" stroke-linejoin="round"/>
<path d="M10.1899 1.89688C10.7692 1.89688 11.2388 2.36655 11.2388 2.9458C11.2388 3.52511 10.7692 3.99472 10.1899 3.99472C9.6106 3.99472 9.14099 3.52511 9.14099 2.9458C9.14099 2.36649 9.6106 1.89688 10.1899 1.89688V1.89688Z" stroke="white" stroke-width="0.200046" stroke-miterlimit="10" stroke-linecap="round" stroke-linejoin="round"/>
<path d="M10.1899 2.20416C10.5995 2.20416 10.9315 2.53625 10.9315 2.94583C10.9315 3.35548 10.5994 3.68757 10.1899 3.68757C9.78021 3.68757 9.44812 3.35548 9.44812 2.94583C9.44812 2.53619 9.78021 2.20416 10.1899 2.20416Z" stroke="white" stroke-width="0.200046" stroke-miterlimit="10" stroke-linecap="round" stroke-linejoin="round"/>
<path d="M10.2222 2.2002C10.2908 2.2002 10.3464 2.25578 10.3464 2.32438" stroke="white" stroke-width="0.200046" stroke-miterlimit="10" stroke-linecap="round" stroke-linejoin="round"/>
<path d="M10.3464 2.32443V2.5728" stroke="white" stroke-width="0.200046" stroke-miterlimit="10" stroke-linecap="round" stroke-linejoin="round"/>
<path d="M10.3466 2.57281C10.3466 2.64142 10.291 2.697 10.2224 2.697" stroke="white" stroke-width="0.200046" stroke-miterlimit="10" stroke-linecap="round" stroke-linejoin="round"/>
<path d="M10.2221 2.69709C10.1535 2.69709 10.0979 2.64145 10.0979 2.57291" stroke="white" stroke-width="0.200046" stroke-miterlimit="10" stroke-linecap="round" stroke-linejoin="round"/>
<path d="M10.0979 2.5728V2.32443" stroke="white" stroke-width="0.200046" stroke-miterlimit="10" stroke-linecap="round" stroke-linejoin="round"/>
<path d="M10.0979 2.32444C10.0979 2.25577 10.1535 2.20026 10.2221 2.20026" stroke="white" stroke-width="0.200046" stroke-miterlimit="10" stroke-linecap="round" stroke-linejoin="round"/>
</g>
<defs>
<clipPath id="clip0">
<rect width="21.1826" height="25" fill="white" transform="translate(0 0.0430298)"/>
</clipPath>
</defs>
</svg>
