<svg width="20" height="20" viewBox="0 0 20 20" fill="none" xmlns="http://www.w3.org/2000/svg">
<path d="M10 4.29932C7.95265 4.29932 6.28699 5.96498 6.28699 8.01232C6.28699 10.0597 7.95265 11.7253 10 11.7253C12.0473 11.7253 13.713 10.0597 13.713 8.01232C13.713 5.96498 12.0474 4.29932 10 4.29932ZM10 10.162C8.81468 10.162 7.85035 9.19764 7.85035 8.01232C7.85035 6.82701 8.81468 5.86268 10 5.86268C11.1853 5.86268 12.1496 6.82701 12.1496 8.01232C12.1496 9.19764 11.1853 10.162 10 10.162Z" fill="white"/>
<path d="M10.0001 0C5.58209 0 1.98779 3.59434 1.98779 8.01231V8.23379C1.98779 10.4682 3.26881 13.0719 5.79537 15.9726C7.62693 18.0754 9.43291 19.5416 9.50885 19.603L10.0001 20L10.4913 19.6031C10.5673 19.5417 12.3733 18.0754 14.2048 15.9726C16.7313 13.0719 18.0124 10.4682 18.0124 8.23383V8.01234C18.0124 3.59434 14.4181 0 10.0001 0ZM16.449 8.23383C16.449 12.0098 11.5838 16.5807 10.0001 17.9683C8.416 16.5803 3.55115 12.0095 3.55115 8.23383V8.01234C3.55115 4.45641 6.44416 1.5634 10.0001 1.5634C13.556 1.5634 16.449 4.45641 16.449 8.01234V8.23383Z" fill="white"/>
</svg>
