<svg width="20" height="20" viewBox="0 0 20 20" fill="none" xmlns="http://www.w3.org/2000/svg">
<path d="M9.99997 4.29932C7.95262 4.29932 6.28696 5.96498 6.28696 8.01232C6.28696 10.0597 7.95262 11.7253 9.99997 11.7253C12.0473 11.7253 13.713 10.0597 13.713 8.01232C13.713 5.96498 12.0474 4.29932 9.99997 4.29932ZM9.99997 10.162C8.81465 10.162 7.85032 9.19764 7.85032 8.01232C7.85032 6.82701 8.81465 5.86268 9.99997 5.86268C11.1853 5.86268 12.1496 6.82701 12.1496 8.01232C12.1496 9.19764 11.1853 10.162 9.99997 10.162Z" fill="#5A5A5B"/>
<path d="M10.0001 0C5.58206 0 1.98776 3.59434 1.98776 8.01231V8.23379C1.98776 10.4682 3.26878 13.0719 5.79534 15.9726C7.6269 18.0754 9.43288 19.5416 9.50882 19.603L10.0001 20L10.4913 19.6031C10.5673 19.5417 12.3733 18.0754 14.2048 15.9726C16.7313 13.0719 18.0124 10.4682 18.0124 8.23383V8.01234C18.0124 3.59434 14.4181 0 10.0001 0ZM16.449 8.23383C16.449 12.0098 11.5837 16.5807 10.0001 17.9683C8.41596 16.5803 3.55112 12.0095 3.55112 8.23383V8.01234C3.55112 4.45641 6.44413 1.5634 10.0001 1.5634C13.556 1.5634 16.449 4.45641 16.449 8.01234V8.23383Z" fill="#5A5A5B"/>
</svg>
