<svg width="20" height="20" viewBox="0 0 20 20" fill="none" xmlns="http://www.w3.org/2000/svg">
<g clip-path="url(#clip0)">
<path d="M15.1863 11.8683L12.9001 9.58598L16.5138 5.97228L16.9281 6.38661C17.2174 6.67591 17.7067 6.58685 17.8759 6.21474L19.9475 1.65722C20.0485 1.43487 20.0011 1.17316 19.8284 1.00042L18.9997 0.171871C18.827 -0.000823486 18.5652 -0.0482842 18.3429 0.0527701L13.7854 2.12436C13.4134 2.29346 13.3245 2.78307 13.6135 3.07209L14.0278 3.48643L10.4141 7.10013L8.13185 4.81392C8.36509 3.50241 7.9447 2.14061 6.99459 1.19046C5.77623 -0.0278937 3.90475 -0.345861 2.33773 0.399214C2.16578 0.480972 2.04425 0.641166 2.01191 0.828783C1.97953 1.0164 2.04039 1.20804 2.17499 1.34269L3.51561 2.67612V3.51584H2.67976L1.34636 2.17132C1.21176 2.03671 1.02012 1.97585 0.832461 2.00823C0.644844 2.04057 0.48465 2.1621 0.402853 2.33405C-0.476558 4.18361 0.121995 6.36079 1.82601 7.51087C2.69753 8.09911 3.77171 8.31813 4.81983 8.13047L5.75037 9.06488C5.34026 9.09219 4.93795 9.26176 4.62518 9.57453C4.08221 10.1175 3.96991 10.9249 4.28139 11.5756L0.515274 15.343C-0.171715 16.0299 -0.171793 17.1418 0.515274 17.8288L2.17253 19.4861C2.85788 20.1715 3.97307 20.1715 4.65846 19.4861L8.42532 15.718C9.08192 16.0308 9.88754 15.9131 10.4257 15.375C10.7384 15.0622 10.908 14.6599 10.9353 14.2498L11.8697 15.1803C11.6821 16.2284 11.9011 17.3027 12.4893 18.1741C13.6397 19.8788 15.8171 20.4764 17.6661 19.5973C17.8381 19.5155 17.9596 19.3554 17.9919 19.1677C18.0243 18.9801 17.9635 18.7884 17.8288 18.6538L16.4843 17.3204V16.5236H17.324L18.6575 17.8252C18.7921 17.9598 18.9838 18.0206 19.1714 17.9882C19.359 17.9559 19.5192 17.8344 19.601 17.6624C20.3461 16.0954 20.0281 14.2239 18.8097 13.0055C17.8596 12.0554 16.4979 11.6351 15.1863 11.8683ZM18.4581 1.28761L18.7125 1.54202L17.1588 4.96013C17.1048 4.90607 15.1674 2.96866 15.04 2.84131L18.4581 1.28761ZM5.42158 7.07497C5.27397 6.92731 5.05897 6.86935 4.85709 6.9229C4.04456 7.13837 3.15648 6.99505 2.48163 6.53954C1.51605 5.88786 1.0459 4.77654 1.20359 3.68584L2.02273 4.47705C2.13265 4.58693 2.28167 4.64865 2.43706 4.64865H4.10155C4.42514 4.64865 4.68749 4.38631 4.68749 4.06272V2.43342C4.68749 2.27803 4.62573 2.12897 4.51585 2.01909L3.69081 1.20124C4.58624 1.07351 5.50963 1.36276 6.16596 2.01913C6.90334 2.75651 7.194 3.84127 6.92451 4.8501C6.87052 5.0522 6.92837 5.26771 7.07626 5.41564L9.58551 7.92879L9.11216 8.40215C8.46274 8.09129 7.65521 8.2018 7.11111 8.74594L7.0999 8.75715L5.42158 7.07497ZM3.82983 18.6575C3.60136 18.886 3.22964 18.886 3.00116 18.6575L1.3439 17.0002C1.11492 16.7713 1.11488 16.4006 1.3439 16.1716L5.03951 12.4748C5.36002 12.7953 7.25275 14.688 7.5254 14.9607L3.82983 18.6575ZM9.597 14.5463C9.36852 14.7748 8.9968 14.7748 8.76833 14.5463L5.45377 11.2318C5.22487 11.0028 5.22483 10.6322 5.45381 10.4032C5.68283 10.1742 6.05342 10.1741 6.28244 10.4032L9.597 13.7177C9.82547 13.9462 9.82547 14.3179 9.597 14.5463ZM10.4256 12.0604L10.0113 12.4747L7.5254 9.98879L7.93974 9.57445C8.16872 9.34555 8.53934 9.34551 8.76837 9.57453L10.4256 11.2318C10.6541 11.4602 10.6541 11.832 10.4256 12.0604ZM10.84 9.98886L10.0113 9.16023L14.8565 4.31506L15.6851 5.14369L10.84 9.98886ZM18.799 16.3093L17.9811 15.4915C17.8712 15.3816 17.7222 15.3126 17.5668 15.3126H16.156C16.1558 15.3126 16.1556 15.3126 16.1554 15.3126H15.9096C15.5859 15.3127 15.3124 15.575 15.3124 15.8986V16.1516C15.3124 16.1518 15.3124 16.152 15.3124 16.1523V17.5631C15.3124 17.7185 15.3742 17.8675 15.4841 17.9774L16.3144 18.7966C15.2237 18.9543 14.1123 18.4841 13.4606 17.5185C13.0051 16.8437 12.8618 15.9556 13.0773 15.1431C13.1308 14.9412 13.0729 14.7262 12.9252 14.5786L11.243 12.9003L11.2543 12.8891C11.7944 12.349 11.9085 11.542 11.5973 10.8887L12.0714 10.4146L14.5846 12.9239C14.7325 13.0718 14.948 13.1297 15.1501 13.0756C16.159 12.8062 17.2438 13.0969 17.9811 13.8342C18.6374 14.4905 18.9267 15.4139 18.799 16.3093Z" fill="white"/>
<path d="M5.45373 14.5459C5.22491 14.3171 4.85393 14.3171 4.62511 14.5459L3.00109 16.1711C2.77226 16.3999 2.77226 16.7709 3.00109 16.9997C3.22999 17.2286 3.60101 17.2285 3.82972 16.9997L5.45373 15.3745C5.68256 15.1457 5.68256 14.7747 5.45373 14.5459Z" fill="white"/>
</g>
<defs>
<clipPath id="clip0">
<rect width="20" height="20" fill="white"/>
</clipPath>
</defs>
</svg>
