<svg width="22" height="26" viewBox="0 0 22 26" fill="none" xmlns="http://www.w3.org/2000/svg">
<g clip-path="url(#clip0)">
<path d="M20.9536 24.2684C20.9536 24.5694 20.7093 24.8137 20.4083 24.8137" stroke="white" stroke-width="0.999624" stroke-miterlimit="10" stroke-linecap="round" stroke-linejoin="round"/>
<path d="M20.408 24.8136H0.774902" stroke="white" stroke-width="0.999624" stroke-miterlimit="10" stroke-linecap="round" stroke-linejoin="round"/>
<path d="M0.774755 24.8137C0.473754 24.8137 0.229492 24.5694 0.229492 24.2684" stroke="white" stroke-width="0.999624" stroke-miterlimit="10" stroke-linecap="round" stroke-linejoin="round"/>
<path d="M0.229492 24.2684V0.817657" stroke="white" stroke-width="0.999624" stroke-miterlimit="10" stroke-linecap="round" stroke-linejoin="round"/>
<path d="M0.229492 0.817663C0.229492 0.516259 0.473754 0.2724 0.774755 0.2724" stroke="white" stroke-width="0.999624" stroke-miterlimit="10" stroke-linecap="round" stroke-linejoin="round"/>
<path d="M0.774902 0.2724H20.408" stroke="white" stroke-width="0.999624" stroke-miterlimit="10" stroke-linecap="round" stroke-linejoin="round"/>
<path d="M20.408 0.2724C20.709 0.2724 20.9532 0.516662 20.9532 0.817663" stroke="white" stroke-width="0.999624" stroke-miterlimit="10" stroke-linecap="round" stroke-linejoin="round"/>
<path d="M20.9534 0.817657V24.2684" stroke="white" stroke-width="0.999624" stroke-miterlimit="10" stroke-linecap="round" stroke-linejoin="round"/>
<path d="M17.4969 15.6026C17.4969 19.4178 14.404 22.5107 10.5888 22.5107C6.77357 22.5107 3.68066 19.4178 3.68066 15.6026C3.68066 11.7873 6.77357 8.69443 10.5888 8.69443C14.404 8.69443 17.4969 11.7873 17.4969 15.6026V15.6026Z" stroke="white" stroke-width="0.999624" stroke-miterlimit="10" stroke-linecap="round" stroke-linejoin="round"/>
<path d="M15.4734 15.6025C15.4734 18.3003 13.2863 20.4873 10.5886 20.4873C7.89082 20.4873 5.70374 18.3003 5.70374 15.6025C5.70374 12.9048 7.89082 10.7177 10.5886 10.7177C13.2863 10.7177 15.4734 12.9048 15.4734 15.6025Z" stroke="white" stroke-width="0.999624" stroke-miterlimit="10" stroke-linecap="round" stroke-linejoin="round"/>
<path d="M0.229492 6.27151H20.9535" stroke="white" stroke-width="0.999624" stroke-miterlimit="10" stroke-linecap="round" stroke-linejoin="round"/>
<path d="M11.4905 3.00836C11.4905 3.61599 10.998 4.10854 10.3903 4.10854C9.78271 4.10854 9.29016 3.61599 9.29016 3.00836C9.29016 2.40072 9.78271 1.90817 10.3903 1.90817C10.998 1.90817 11.4905 2.40072 11.4905 3.00836Z" stroke="white" stroke-width="0.999624" stroke-miterlimit="10" stroke-linecap="round" stroke-linejoin="round"/>
<path d="M1.67065 2.45383H5.41184" stroke="white" stroke-width="0.999624" stroke-miterlimit="10" stroke-linecap="round" stroke-linejoin="round"/>
<path d="M1.67065 4.09006H5.41184" stroke="white" stroke-width="0.999624" stroke-miterlimit="10" stroke-linecap="round" stroke-linejoin="round"/>
<path d="M15.4995 15.8154C15.4995 16.2673 15.1333 16.6335 14.6814 16.6335" stroke="white" stroke-width="0.999624" stroke-miterlimit="10" stroke-linecap="round" stroke-linejoin="round"/>
<path d="M14.6816 16.6335H13.0454" stroke="white" stroke-width="0.999624" stroke-miterlimit="10" stroke-linecap="round" stroke-linejoin="round"/>
<path d="M13.0454 16.6335C12.5935 16.6335 12.2273 16.2673 12.2273 15.8154" stroke="white" stroke-width="0.999624" stroke-miterlimit="10" stroke-linecap="round" stroke-linejoin="round"/>
<path d="M12.2277 15.8154C12.2277 15.3635 12.5939 14.9973 13.0458 14.9973" stroke="white" stroke-width="0.999624" stroke-miterlimit="10" stroke-linecap="round" stroke-linejoin="round"/>
<path d="M13.0454 14.9973H14.6816" stroke="white" stroke-width="0.999624" stroke-miterlimit="10" stroke-linecap="round" stroke-linejoin="round"/>
<path d="M14.6814 14.9973C15.1333 14.9973 15.4995 15.3635 15.4995 15.8154" stroke="white" stroke-width="0.999624" stroke-miterlimit="10" stroke-linecap="round" stroke-linejoin="round"/>
<path fill-rule="evenodd" clip-rule="evenodd" d="M14.4357 2.15042H19.1829C19.3559 2.15042 19.4975 2.29207 19.4975 2.4651V3.76488C19.4975 3.93792 19.3559 4.07957 19.1829 4.07957H14.4357C14.2626 4.07957 14.121 3.93792 14.121 3.76488V2.4651C14.121 2.29207 14.2626 2.15042 14.4357 2.15042V2.15042Z" stroke="white" stroke-width="0.999624" stroke-miterlimit="22.9256"/>
</g>
<defs>
<clipPath id="clip0">
<rect width="21.1825" height="25" fill="white" transform="translate(0 0.0430298)"/>
</clipPath>
</defs>
</svg>
