<svg width="51" height="39" viewBox="0 0 51 39" fill="none" xmlns="http://www.w3.org/2000/svg">
<g clip-path="url(#clip0)">
<path d="M49.2473 35.1222H1.35571" stroke="black" stroke-width="0.999756" stroke-miterlimit="10" stroke-linecap="round" stroke-linejoin="round"/>
<path d="M1.35568 35.1223C0.883011 35.1223 0.500488 34.7398 0.500488 34.2671" stroke="black" stroke-width="0.999756" stroke-miterlimit="10" stroke-linecap="round" stroke-linejoin="round"/>
<path d="M0.500488 34.267V1.35547" stroke="black" stroke-width="0.999756" stroke-miterlimit="10" stroke-linecap="round" stroke-linejoin="round"/>
<path d="M0.500488 1.3555C0.500488 0.882827 0.883011 0.500305 1.35568 0.500305" stroke="black" stroke-width="0.999756" stroke-miterlimit="10" stroke-linecap="round" stroke-linejoin="round"/>
<path d="M1.35571 0.500305H49.2473" stroke="black" stroke-width="0.999756" stroke-miterlimit="10" stroke-linecap="round" stroke-linejoin="round"/>
<path d="M49.2473 0.500305C49.72 0.500305 50.1025 0.882827 50.1025 1.3555" stroke="black" stroke-width="0.999756" stroke-miterlimit="10" stroke-linecap="round" stroke-linejoin="round"/>
<path d="M50.1025 1.35547V34.267" stroke="black" stroke-width="0.999756" stroke-miterlimit="10" stroke-linecap="round" stroke-linejoin="round"/>
<path d="M50.1025 34.2671C50.1025 34.7398 49.72 35.1223 49.2473 35.1223" stroke="black" stroke-width="0.999756" stroke-miterlimit="10" stroke-linecap="round" stroke-linejoin="round"/>
<path d="M0.500488 33.1049H50.1025" stroke="black" stroke-width="0.999756" stroke-miterlimit="10" stroke-linecap="round" stroke-linejoin="round"/>
<path d="M8.07865 35.1222L6.49902 38.0443" stroke="black" stroke-width="0.999756" stroke-miterlimit="10" stroke-linecap="round" stroke-linejoin="round"/>
<path d="M42.5234 35.1222L44.1031 38.0443" stroke="black" stroke-width="0.999756" stroke-miterlimit="10" stroke-linecap="round" stroke-linejoin="round"/>
<path d="M3.36987 11.6065L11.1827 3.79279" stroke="black" stroke-width="0.999756" stroke-miterlimit="10" stroke-linecap="round" stroke-linejoin="round"/>
<path d="M3.36987 17.713L17.2901 3.79279" stroke="black" stroke-width="0.999756" stroke-miterlimit="10" stroke-linecap="round" stroke-linejoin="round"/>
</g>
<defs>
<clipPath id="clip0">
<rect width="50.602" height="38.5446" fill="white"/>
</clipPath>
</defs>
</svg>
