<svg width="25" height="25" viewBox="0 0 25 25" fill="none" xmlns="http://www.w3.org/2000/svg">
<g clip-path="url(#clip0)">
<path fill-rule="evenodd" clip-rule="evenodd" d="M12.5316 21.4358C12.7867 22.0228 12.9028 22.5189 12.8387 23.1744C12.8086 23.4828 12.7287 23.7789 12.6986 24.0728C12.7726 24.0204 12.9143 23.8465 12.9812 23.7574C13.0643 23.6468 13.1396 23.5317 13.2142 23.3925C13.5391 22.7871 13.5737 22.0595 13.4291 21.3902C13.2268 20.4544 12.6645 19.7352 12.5114 18.7177C12.4063 18.0186 12.5835 17.3946 12.6923 16.7377C12.5682 16.7984 12.2299 17.2839 12.1429 17.4409C11.7823 18.0925 11.68 18.7727 11.8024 19.5209C11.9161 20.2148 12.2574 20.8048 12.5316 21.4357V21.4358ZM16.0923 21.8757C16.1679 22.3352 16.0683 22.7012 16.0004 23.1349C16.0679 23.1039 16.1476 22.9971 16.1923 22.9351C16.2457 22.861 16.2924 22.7999 16.3468 22.7106C16.5622 22.3572 16.6312 21.8934 16.5889 21.4751C16.4996 20.5918 15.992 19.9828 15.8642 19.1593C15.8237 18.8986 15.8319 18.6522 15.8655 18.3901C15.8913 18.1892 15.9879 17.8412 15.9888 17.6702C15.9553 17.7039 15.9057 17.7413 15.8735 17.7828C15.7408 17.954 15.6988 17.9966 15.574 18.2081C15.4634 18.3955 15.37 18.6751 15.3292 18.9226C15.1172 20.2085 15.9225 20.8439 16.0923 21.8757V21.8757ZM9.36803 23.4393C9.48502 23.3637 9.66861 23.0961 9.74893 22.9464C9.85375 22.7511 9.92248 22.5259 9.95322 22.2833C10.087 21.2286 9.4302 20.4562 9.24817 19.5554C9.12595 18.9505 9.27624 18.538 9.35911 17.9742C9.29158 18.0349 9.19498 18.133 9.13861 18.2111C8.60087 18.9576 8.52617 19.7485 8.85923 20.6198C9.02112 21.0433 9.24113 21.4119 9.38318 21.8596C9.58087 22.4826 9.44511 22.8336 9.36797 23.4392L9.36803 23.4393Z" fill="white"/>
<path d="M24.7667 15.7335H0.233276V12.8842H24.7667V15.7335Z" stroke="white" stroke-width="1.00005" stroke-miterlimit="10" stroke-linecap="round" stroke-linejoin="round"/>
<path d="M17.0668 7.04236H7.46671L0 12.7408H24.5334L17.0668 7.04236Z" stroke="white" stroke-width="1.00005" stroke-miterlimit="10" stroke-linecap="round" stroke-linejoin="round"/>
<path d="M17.3001 0.276306H7.70007V7.1857H17.3001V0.276306Z" stroke="white" stroke-width="1.00005" stroke-miterlimit="10" stroke-linecap="round" stroke-linejoin="round"/>
<path fill-rule="evenodd" clip-rule="evenodd" d="M9.88303 14.0994C10.0378 14.0994 10.1634 14.2248 10.1634 14.3798C10.1634 14.5347 10.0378 14.6601 9.88303 14.6601C9.72825 14.6601 9.60266 14.5347 9.60266 14.3798C9.60266 14.2248 9.72825 14.0994 9.88303 14.0994ZM15.1171 14.0994C15.2718 14.0994 15.3974 14.2248 15.3974 14.3798C15.3974 14.5347 15.2718 14.6601 15.1171 14.6601C14.9623 14.6601 14.8367 14.5347 14.8367 14.3798C14.8367 14.2248 14.9623 14.0994 15.1171 14.0994ZM13.8086 14.0994C13.9633 14.0994 14.0889 14.2248 14.0889 14.3798C14.0889 14.5347 13.9633 14.6601 13.8086 14.6601C13.6538 14.6601 13.5282 14.5347 13.5282 14.3798C13.5282 14.2248 13.6538 14.0994 13.8086 14.0994ZM12.5 14.0994C12.6548 14.0994 12.7804 14.2248 12.7804 14.3798C12.7804 14.5347 12.6548 14.6601 12.5 14.6601C12.3453 14.6601 12.2196 14.5347 12.2196 14.3798C12.2196 14.2248 12.3453 14.0994 12.5 14.0994ZM11.1915 14.0994C11.3463 14.0994 11.4718 14.2248 11.4718 14.3798C11.4718 14.5347 11.3463 14.6601 11.1915 14.6601C11.0367 14.6601 10.9111 14.5347 10.9111 14.3798C10.9111 14.2248 11.0367 14.0994 11.1915 14.0994Z" fill="white" stroke="white" stroke-width="0.250045" stroke-miterlimit="22.9256"/>
</g>
<defs>
<clipPath id="clip0">
<rect width="25" height="24.0299" fill="white" transform="translate(0 0.0430298)"/>
</clipPath>
</defs>
</svg>
