<svg width="54" height="52" viewBox="0 0 54 52" fill="none" xmlns="http://www.w3.org/2000/svg">
<g clip-path="url(#clip0)">
<path fill-rule="evenodd" clip-rule="evenodd" d="M26.8562 45.8463C27.4031 47.1043 27.6518 48.1676 27.5144 49.5723C27.4499 50.2333 27.2787 50.8678 27.2141 51.4977C27.3728 51.3854 27.6764 51.0125 27.8198 50.8217C27.9979 50.5848 28.1592 50.338 28.3192 50.0398C29.0154 48.7422 29.0897 47.183 28.7796 45.7485C28.3461 43.7431 27.1412 42.2018 26.8131 40.0212C26.5877 38.5231 26.9676 37.1857 27.2006 35.778C26.9347 35.908 26.2097 36.9484 26.0234 37.2849C25.2505 38.6815 25.0312 40.1391 25.2935 41.7426C25.5372 43.2296 26.2686 44.4941 26.8562 45.8462V45.8463ZM34.4871 46.789C34.6492 47.7738 34.4356 48.5582 34.2901 49.4877C34.4348 49.4211 34.6056 49.1923 34.7015 49.0594C34.8158 48.9006 34.9159 48.7696 35.0326 48.5782C35.4941 47.8209 35.642 46.827 35.5513 45.9305C35.36 44.0376 34.2722 42.7324 33.9982 40.9677C33.9115 40.4089 33.9291 39.8809 34.0012 39.3191C34.0564 38.8886 34.2634 38.1428 34.2654 37.7763C34.1936 37.8486 34.0872 37.9287 34.0183 38.0177C33.7337 38.3845 33.6438 38.4758 33.3764 38.9291C33.1394 39.3308 32.9391 39.93 32.8517 40.4604C32.3975 43.2162 34.1232 44.5779 34.4871 46.789ZM20.0765 50.14C20.3273 49.978 20.7207 49.4046 20.8928 49.0835C21.1175 48.6651 21.2648 48.1825 21.3306 47.6625C21.6174 45.4022 20.2098 43.7469 19.8197 41.8165C19.5577 40.5201 19.8798 39.6362 20.0574 38.4278C19.9127 38.5579 19.7057 38.7682 19.5849 38.9357C18.4325 40.5354 18.2724 42.2302 18.9862 44.0976C19.3331 45.0052 19.8046 45.795 20.109 46.7546C20.5327 48.0898 20.2417 48.8419 20.0764 50.1397L20.0765 50.14Z" fill="black"/>
<path d="M53.0769 33.6258H0.5V27.5195H53.0769V33.6258Z" stroke="black" stroke-width="1.00005" stroke-miterlimit="10" stroke-linecap="round" stroke-linejoin="round"/>
<path d="M36.5753 15H16.0017L0 27.2123H52.5769L36.5753 15Z" stroke="black" stroke-width="1.00005" stroke-miterlimit="10" stroke-linecap="round" stroke-linejoin="round"/>
<path d="M37.0753 0.499939H16.5017V15.3073H37.0753V0.499939Z" stroke="black" stroke-width="1.00005" stroke-miterlimit="10" stroke-linecap="round" stroke-linejoin="round"/>
<path fill-rule="evenodd" clip-rule="evenodd" d="M21.18 30.1238C21.5117 30.1238 21.7808 30.3926 21.7808 30.7247C21.7808 31.0568 21.5117 31.3256 21.18 31.3256C20.8483 31.3256 20.5791 31.0568 20.5791 30.7247C20.5791 30.3926 20.8483 30.1238 21.18 30.1238ZM32.3968 30.1238C32.7285 30.1238 32.9977 30.3926 32.9977 30.7247C32.9977 31.0568 32.7285 31.3256 32.3968 31.3256C32.0651 31.3256 31.796 31.0568 31.796 30.7247C31.796 30.3926 32.0651 30.1238 32.3968 30.1238ZM29.5926 30.1238C29.9243 30.1238 30.1935 30.3926 30.1935 30.7247C30.1935 31.0568 29.9243 31.3256 29.5926 31.3256C29.2609 31.3256 28.9918 31.0568 28.9918 30.7247C28.9918 30.3926 29.2609 30.1238 29.5926 30.1238ZM26.7883 30.1238C27.12 30.1238 27.3893 30.3926 27.3893 30.7247C27.3893 31.0568 27.12 31.3256 26.7883 31.3256C26.4567 31.3256 26.1874 31.0568 26.1874 30.7247C26.1874 30.3926 26.4567 30.1238 26.7883 30.1238ZM23.984 30.1238C24.3157 30.1238 24.5849 30.3926 24.5849 30.7247C24.5849 31.0568 24.3157 31.3256 23.984 31.3256C23.6523 31.3256 23.3832 31.0568 23.3832 30.7247C23.3832 30.3926 23.6523 30.1238 23.984 30.1238Z" fill="black" stroke="black" stroke-width="0.250045" stroke-miterlimit="22.9256"/>
</g>
<defs>
<clipPath id="clip0">
<rect width="53.5768" height="51.4977" fill="white"/>
</clipPath>
</defs>
</svg>
